<?xml version="1.0" encoding="utf-8"?>
<!-- Generator: Adobe Illustrator 23.0.1, SVG Export Plug-In . SVG Version: 6.00 Build 0)  -->
<svg version="1.1" id="Layer_1" focusable="false" xmlns="http://www.w3.org/2000/svg" xmlns:xlink="http://www.w3.org/1999/xlink"
	 x="0px" y="0px" viewBox="0 0 448 512" style="enable-background:new 0 0 448 512;" xml:space="preserve">
<style type="text/css">
	.st0{fill:#ED2651;}
</style>
<rect x="7.4" y="148.9" class="st0" width="92.9" height="299.1"/>
<path class="st0" d="M53.8,108.1C24.1,108.1,0,83.5,0,53.8S24.1,0,53.8,0s53.8,24.1,53.8,53.8S83.5,108.1,53.8,108.1z"/>
<path class="st0" d="M447.9,448h-92.7V302.4c0-34.7-0.7-79.2-48.3-79.2c-48.3,0-55.7,37.7-55.7,76.7V448h-92.8V148.9h89.1v40.8h1.3
	c12.4-23.5,42.7-48.3,87.9-48.3c94,0,111.3,61.9,111.3,142.3V448H447.9z"/>
</svg>
