<svg id="Layer_1" data-name="Layer 1" xmlns="http://www.w3.org/2000/svg" viewBox="0 0 600 600"><defs><style>.cls-1{fill:#ee3959;}.cls-2{fill:none;}.cls-3{fill:#ec3858;}.cls-4{fill:#ed3959;}.cls-5{fill:#ed3859;}.cls-6{fill:#e93959;}.cls-7{fill:#eb3759;}.cls-8{fill:#ec3759;}.cls-9{fill:#e53656;}.cls-10{fill:#e93a5c;}.cls-11{fill:#e63658;}.cls-12{fill:#eb3a5c;}.cls-13{fill:#e6395a;}.cls-14{fill:#ec395b;}.cls-15{fill:#e83659;}.cls-16{fill:#d83657;}.cls-17{fill:#e53557;}.cls-18{fill:#e23659;}.cls-19{fill:#ed3858;}.cls-20{fill:#ec3758;}.cls-21{fill:#eb3858;}.cls-22{fill:#ec3859;}.cls-23{fill:#eb3758;}.cls-24{fill:#ea3758;}.cls-25{fill:#e93758;}.cls-26{fill:#eb3859;}.cls-27{fill:#ea3759;}.cls-28{fill:#e83758;}.cls-29{fill:#e73658;}.cls-30{fill:#e93659;}.cls-31{fill:#e83757;}.cls-32{fill:#e73657;}.cls-33{fill:#ec3658;}.cls-34{fill:#e53658;}.cls-35{fill:#e53558;}.cls-36{fill:#e93658;}.cls-37{fill:#ea3657;}.cls-38{fill:#e93759;}.cls-39{fill:#e73757;}.cls-40{fill:#e83657;}.cls-41{fill:#e73559;}.cls-42{fill:#e73659;}.cls-43{fill:#e63657;}.cls-44{fill:#e53758;}.cls-45{fill:#e83658;}.cls-46{fill:#e63659;}.cls-47{fill:#e43658;}.cls-48{fill:#e53657;}.cls-49{fill:#e9365a;}.cls-50{fill:#e33558;}.cls-51{fill:#e43458;}.cls-52{fill:#ea3659;}.cls-53{fill:#e73558;}.cls-54{fill:#e13557;}.cls-55{fill:#e03557;}.cls-56{fill:#e33557;}.cls-57{fill:#e43558;}.cls-58{fill:#eb3659;}.cls-59{fill:#e63558;}.cls-60{fill:#e43557;}.cls-61{fill:#e23558;}.cls-62{fill:#e33458;}.cls-63{fill:#e23559;}.cls-64{fill:#e03458;}.cls-65{fill:#e63557;}.cls-66{fill:#e13459;}.cls-67{fill:#e03457;}.cls-68{fill:#df3457;}.cls-69{fill:#e23557;}.cls-70{fill:#df3456;}.cls-71{fill:#e63559;}.cls-72{fill:#e33559;}.cls-73{fill:#e53659;}.cls-74{fill:#e23459;}.cls-75{fill:#db3358;}.cls-76{fill:#e43457;}.cls-77{fill:#e13558;}.cls-78{fill:#e73459;}.cls-79{fill:#db3357;}.cls-80{fill:#ed365a;}.cls-81{fill:#e13456;}.cls-82{fill:#de3358;}.cls-83{fill:#e13457;}.cls-84{fill:#de3357;}.cls-85{fill:#dd3358;}.cls-86{fill:#dd3457;}.cls-87{fill:#df3358;}.cls-88{fill:#e3345a;}.cls-89{fill:#d93256;}.cls-90{fill:#dc3356;}.cls-91{fill:#de3458;}.cls-92{fill:#e03558;}.cls-93{fill:#e8355b;}.cls-94{fill:#dc3457;}.cls-95{fill:#d53258;}.cls-96{fill:#e73557;}.cls-97{fill:#e4335a;}.cls-98{fill:#d73155;}.cls-99{fill:#e83558;}.cls-100{fill:#de3359;}.cls-101{fill:#da3257;}.cls-102{fill:#d43158;}.cls-103{fill:#da3256;}.cls-104{fill:#d93357;}.cls-105{fill:#d03254;}.cls-106{fill:#e23359;}.cls-107{fill:#dd345a;}.cls-108{fill:#df3256;}.cls-109{fill:#d83358;}.cls-110{fill:#e33457;}.cls-111{fill:#df3158;}.cls-112{fill:#d93158;}.cls-113{fill:#da3157;}.cls-114{fill:#e13359;}.cls-115{fill:#e7355a;}.cls-116{fill:#da3259;}.cls-117{fill:#d93356;}.cls-118{fill:#dd3456;}.cls-119{fill:#d73159;}.cls-120{fill:#d13058;}.cls-121{fill:#d33056;}.cls-122{fill:#df3357;}.cls-123{fill:#d43157;}.cls-124{fill:#da3255;}.cls-125{fill:#dc3358;}.cls-126{fill:#e5345b;}.cls-127{fill:#d53159;}.cls-128{fill:#e1325b;}.cls-129{fill:#e23358;}.cls-130{fill:#de335c;}.cls-131{fill:#da3355;}.cls-132{fill:#df3458;}.cls-133{fill:#e23458;}.cls-134{fill:#de3457;}.cls-135{fill:#dc3357;}.cls-136{fill:#d7315b;}.cls-137{fill:#dd3357;}.cls-138{fill:#da3356;}.cls-139{fill:#e1335a;}.cls-140{fill:#de335a;}.cls-141{fill:#de315a;}.cls-142{fill:#e33554;}.cls-143{fill:#db335b;}.cls-144{fill:#e9355b;}.cls-145{fill:#cb2f55;}.cls-146{fill:#dc325a;}.cls-147{fill:#d53255;}.cls-148{fill:#db3256;}.cls-149{fill:#dd305d;}.cls-150{fill:#d13156;}.cls-151{fill:#cb3055;}.cls-152{fill:#e83459;}.cls-153{fill:#de3256;}.cls-154{fill:#e0315c;}.cls-155{fill:#d73057;}.cls-156{fill:#e6345c;}.cls-157{fill:#e1335b;}.cls-158{fill:#db305c;}.cls-159{fill:#e53457;}.cls-160{fill:#df3257;}.cls-161{fill:#c63054;}.cls-162{fill:#e0325b;}.cls-163{fill:#d3315c;}.cls-164{fill:#d53059;}.cls-165{fill:#e7365a;}.cls-166{fill:#d63158;}.cls-167{fill:#cf3056;}.cls-168{fill:#cd3155;}.cls-169{fill:#de3259;}.cls-170{fill:#e43257;}.cls-171{fill:#cc2d56;}.cls-172{fill:#d23157;}.cls-173{fill:#e93357;}.cls-174{fill:#dc3158;}.cls-175{fill:#ca2f59;}.cls-176{fill:#e93660;}.cls-177{fill:#d83158;}.cls-178{fill:#ca305b;}.cls-179{fill:#d3305b;}.cls-180{fill:#d02e59;}.cls-181{fill:#c73052;}.cls-182{fill:#e7355c;}.cls-183{fill:#ec3659;}.cls-184{fill:#ce2f5c;}.cls-185{fill:#cf3055;}.cls-186{fill:#e33358;}.cls-187{fill:#e3345f;}.cls-188{fill:#e13259;}.cls-189{fill:#d82f57;}.cls-190{fill:#e3355b;}.cls-191{fill:#d33059;}</style></defs><title>logo_3</title><path class="cls-1" d="M558.73,599.39H532.85c-1.63-3.34,1.33-4.28,3.16-5.35,3.56-2.09,7.16-3.71,8.57-8.27.76-2.48,3.92-3,6.22-4,1.67-.71,3.44-1.32,3.86-3.21,1.07-4.84,4.81-6.85,8.76-8.66,1.66-.76,3.29-1.61,3.5-3.57.43-4.15,3.36-6,6.67-7.35,2.89-1.15,4.9-2.65,5.28-6a6.73,6.73,0,0,1,4.64-5.64c3.5-1.21,5.32-3.3,6.36-6.92,1.43-5,5.17-6.8,9.12-5.21v17.25c-1,.72-.57,1.68-.54,2.62.18,5.2-1.26,9.44-6.94,10.89a4.46,4.46,0,0,0-3.54,3.95c-.92,4.73-4.09,7.38-8.49,8.76-1.58.5-3.25,1-3.39,2.92-.39,5.5-4.23,7.49-8.75,8.66a4.27,4.27,0,0,0-3.47,3.52C563.47,597.05,561.2,598.21,558.73,599.39Z"/><path class="cls-1" d="M599,586v.95c0,4.16,1.62,9.93-.46,12s-7.85.45-12,.45a1.66,1.66,0,0,0-2.88,0H565.44c-2.89-3.91-2.38-7.07,1.63-9.39a18.86,18.86,0,0,1,5.21-2.3,3.57,3.57,0,0,0,3-3.25c.3-3.87,2.84-6,6-7.18a10.62,10.62,0,0,0,6.86-7.75c.79-2.85,6.07-6.14,8.88-5.9a3.58,3.58,0,0,1,2,1.27V583.1c-1.65,1.39-2.89,3-2.66,4.74C596.62,587,596.78,585.32,599,586Z"/><path class="cls-2" d="M599,535.18c-6.27,1.57-8.28,4.91-7.23,12-9.36,1.35-9.53,1.45-11,11.26-.27,1.76-1.14,1.33-2.28,1.4-7.11.5-8.94,2.3-9.33,9.78-.1,1.89-.7,1.88-2.17,2-7.72.6-10.38,3.75-9.79,11.65-3.29-.26-6.63-.57-9.36,1.86s-3,5.76-2.67,9.53c-5.26-1.2-9.66-.36-12.28,4.73H527.1c-2.16-1.74-2.43-4-1.49-6.4s3-2.29,5.17-2.18c5.1.25,7.59-2.55,6.88-7.64-.2-1.44-.61-2.78.46-4,1.31-1.15,2.61-.51,4-.12,5.07,1.41,8-.32,8.25-5.37.18-4.16,1.77-5.52,5.83-5.54,4.47,0,6.36-2.42,6.06-7.25-.2-3.25.87-4.7,4.18-4.89,6.86-.39,7.95-1.8,7.22-8.53a4,4,0,0,1,.22-1.88c.93-1.93,2.63-1.9,4.47-1.92,5.32-.08,7.28-2.28,6.79-7.37-.48-4.83-.25-5.16,4.53-5.35a7.49,7.49,0,0,0,5.61-2.18c1-1.06,2-2.13,3.7-1.23Z"/><path class="cls-3" d="M599,527.51c-3.64,5.92-5.86,6.84-12.87,5.08,1.9,3.45,2.68,6.8.5,10.21-1.39,2.18-3.51,3.08-5.93,3.59-2.06.43-3.8-1.46-5.87-.72-1.17.14-1.68-.41-1.64-1.54a4.6,4.6,0,0,0,0-1.39c-3-8.92,1.42-13.67,11.36-11.74-2-3.71-2.73-7.38.22-10.62s6.69-3.17,10.88-1.65c-1.57-3.06-3.42-5.7-1.71-9,1.13-2.16,2.17-4.29,5.08-4.28Z"/><path class="cls-4" d="M538.6,579.25c.68,2.41,2.41,4.52,1.89,7.28a8.32,8.32,0,0,1-13.32,5.17c.15,2.75.53,5.25-.07,7.69H511.77c0-7.06,1.45-9.47,6-10.94,2.62-.85,4.64.36,7,1.23.72-2-.86-3.86-.27-5.92,1.53-5.39,5.38-7,13.47-5.3C538.63,578.4,539,578.56,538.6,579.25Z"/><path class="cls-2" d="M599,564.89c-6.6.16-9.9,3-10.33,9.22-.14,1.88-.18,2.53-2.45,2.74-5.78.52-8.59,3.42-9.15,9.13-.19,2-.45,2.55-2.6,2.71-6.83.53-9.21,3.54-9,10.7h-6.71c1.89-2.88,4.18-5.62,3.19-9.48-.28-1.08.33-1.17,1.28-1.3,10.29-1.46,10.76-2,11.19-11.73,8.77.78,12.5-3,11.61-11.9,9-.17,11.16-2.4,11.15-11.53,0-1.68.92-1.24,1.84-1Z"/><path class="cls-5" d="M599,496.84c-1.67,2.11-3.25,4.41-6.2,4.71-3.54.37-6.27-1.09-7.66-4.37s-.84-6.3,2-8.58a7,7,0,0,1,8.8-.34,22.84,22.84,0,0,1,3.09,2.83Z"/><path class="cls-6" d="M477.26,599.39c.64-4.26,2.89-7.16,7.34-7.35,4.89-.22,6.7,3.4,8,7.35Z"/><path class="cls-7" d="M599,382.78c-2.36,1.91-4.88,3.14-7.8,1.27-1.83-1.16-2.23-3-1.93-5.06.66-4.38,4.69-5.18,9.73-2Z"/><path class="cls-8" d="M599,420.16c-4,.11-6.65-1.68-6.61-5.77s2.54-6,6.61-5.73Z"/><path class="cls-9" d="M599,487.25c-6.54-3.55-6.54-9.38,0-13.41Z"/><path class="cls-10" d="M368,599.39c.65-3.28,1.78-6.19,5.91-5.81,3.42.31,4.79,2.52,4.63,5.81Z"/><path class="cls-11" d="M599,454.67c-6.91-4.24-6.91-9.35,0-13.42Z"/><path class="cls-12" d="M442.76,599.39c.3-3.27,2.49-4.51,5.38-4.81,3.65-.37,6,1.34,7.08,4.81Z"/><path class="cls-13" d="M406.34,599.39c.35-3.35,2.88-4.45,5.57-4.39,2.46.07,4.85,1.19,5,4.39Z"/><path class="cls-2" d="M599,586a5.4,5.4,0,0,0-1.85,4.19c.36,3.56-1.45,4-4.55,3.26,1.68-2.53,3.22-5,2.85-8.2s2.16-1.76,3.55-2.13Z"/><path class="cls-14" d="M314.32,599.39c-.09-.59-.19-1.18-.29-1.78,1.07-2.19,2.76-3.57,5.23-2.85,2.1.62,3.44,2.14,2.73,4.63Z"/><path class="cls-15" d="M599,316.65c-2.92.36-4.69-1.14-4.68-3.84S596,308.55,599,309Z"/><path class="cls-16" d="M213.57,598.31l-.84,1.08h-3.84c.06-2-1.68-4.83,1.83-5.23C213.44,593.85,214,596,213.57,598.31Z"/><path class="cls-17" d="M599,369.36c-4.37-3.58-4.37-6,0-9.58Z"/><path class="cls-18" d="M193.56,599.39l-1.83-2c.2-2.24,1.36-3.79,3.59-2.71s1.1,3.07.15,4.68Z"/><path class="cls-2" d="M583.65,599.39c-.63-3.73.88-4.9,4.45-3.67.18,1.52-1.94,2.09-1.57,3.67Z"/><path class="cls-19" d="M538.6,579.25l-.61-.79c-1.73-3.47-1.6-6.78,1.11-9.68,3-3.27,6.7-3,10.52-1.38-1.84-8,.86-14.37,12-12.3-1.62-4.15-1.51-8,2.22-10.73a7.68,7.68,0,0,1,9.33-.25l1.64,1.55c2.7,3.1,2.57,6.46.4,9.63-2.8,4.09-6.88,3.8-11.11,2.35,2.31,10.16-1.73,14.37-11.93,12.29,1.57,4.56,1.12,8.62-3.27,11.15C545.11,583.27,541.58,582.42,538.6,579.25Z"/><path class="cls-3" d="M547.82,552.44a7.66,7.66,0,0,1-7.18-8,8,8,0,0,1,7.82-7,7.77,7.77,0,0,1,7.38,7.87A7.57,7.57,0,0,1,547.82,552.44Z"/><path class="cls-5" d="M567.35,533a7.5,7.5,0,0,1-7.84,7.26,7.79,7.79,0,0,1-7.38-7.36,7.49,7.49,0,0,1,7.7-7.4A7.35,7.35,0,0,1,567.35,533Z"/><path class="cls-19" d="M524.57,560.69a7.39,7.39,0,1,1-8,7A7.38,7.38,0,0,1,524.57,560.69Z"/><path class="cls-5" d="M529,556.5c.08-4.33,3.31-7.29,7.75-7.11a7.11,7.11,0,0,1,7.07,7.38c0,4.35-3.09,7.36-7.56,7.34A7.09,7.09,0,0,1,529,556.5Z"/><path class="cls-5" d="M511.23,571.58a7.12,7.12,0,0,1,7.35,7.06,7.31,7.31,0,1,1-14.61.11A7.14,7.14,0,0,1,511.23,571.58Z"/><path class="cls-3" d="M574.07,507.2A7.6,7.6,0,0,1,582,500a7.51,7.51,0,0,1,6.85,7.74,7.68,7.68,0,0,1-7.41,7.25A7.79,7.79,0,0,1,574.07,507.2Z"/><path class="cls-5" d="M571.1,513.09a7,7,0,0,1,7.14,7.28,7.38,7.38,0,1,1-7.14-7.28Z"/><path class="cls-19" d="M490.73,589.56a7.44,7.44,0,0,1,7.15-7.43,7.24,7.24,0,1,1,.39,14.46A7.42,7.42,0,0,1,490.73,589.56Z"/><path class="cls-19" d="M543.85,515.23a7,7,0,1,1,7.27,6.61A6.87,6.87,0,0,1,543.85,515.23Z"/><path class="cls-3" d="M534.74,538.94a7,7,0,0,1-6.81,7.1,6.94,6.94,0,0,1-7.29-6.61,7.06,7.06,0,0,1,14.1-.49Z"/><path class="cls-20" d="M515.35,543.8a6.65,6.65,0,0,1,7,6.84,6.53,6.53,0,0,1-6.92,6.81,6.4,6.4,0,0,1-6.7-6.54A6.67,6.67,0,0,1,515.35,543.8Z"/><path class="cls-5" d="M546.28,527.27a6.67,6.67,0,0,1-6.87,7,6.84,6.84,0,1,1,6.87-7Z"/><path class="cls-21" d="M502.75,554.75a7.13,7.13,0,0,1,7.09,6.88,7.42,7.42,0,0,1-7,7.06,6.85,6.85,0,0,1-6.66-6.72A6.74,6.74,0,0,1,502.75,554.75Z"/><path class="cls-19" d="M568.43,502.2a6.81,6.81,0,0,1-6.69,7.08,7,7,0,0,1-6.84-6.48,6.5,6.5,0,0,1,6.48-7.17A6.4,6.4,0,0,1,568.43,502.2Z"/><path class="cls-5" d="M572.22,482.46a6.76,6.76,0,0,1,6.65,7.14A6.54,6.54,0,0,1,572,496a6.31,6.31,0,0,1-6.6-6.56A6.67,6.67,0,0,1,572.22,482.46Z"/><path class="cls-22" d="M483,572.09a6.76,6.76,0,0,1,7.28-6.55,6.4,6.4,0,0,1,6.28,6.91,6.87,6.87,0,0,1-6.64,6.75A7.28,7.28,0,0,1,483,572.09Z"/><path class="cls-20" d="M469.66,582.39a7.13,7.13,0,0,1,7-6.94,6.55,6.55,0,0,1,6.51,6.72c.07,4-2.4,6.61-6.29,6.75A6.76,6.76,0,0,1,469.66,582.39Z"/><path class="cls-23" d="M575.29,476.07a6.94,6.94,0,0,1,6.39-7,6.55,6.55,0,0,1,7,6.27c.25,4.12-2.41,7.06-6.45,7.13A6.72,6.72,0,0,1,575.29,476.07Z"/><path class="cls-19" d="M463,585.1a7.15,7.15,0,0,1,6.6,6.92,6.75,6.75,0,0,1-6.86,6.49,6.62,6.62,0,0,1-6.54-6.76A7,7,0,0,1,463,585.1Z"/><path class="cls-24" d="M591.74,455.52a6.15,6.15,0,0,1,6.34,6.72,6.64,6.64,0,0,1-6.76,6.54,7.15,7.15,0,0,1-6.56-6.93A6.67,6.67,0,0,1,591.74,455.52Z"/><path class="cls-25" d="M513.29,533.32a6.43,6.43,0,1,1-12.85-.13A6.93,6.93,0,0,1,507,526.8,6.62,6.62,0,0,1,513.29,533.32Z"/><path class="cls-24" d="M525.23,521.44a6.22,6.22,0,0,1-5.93,6.63,6.42,6.42,0,0,1-6.65-6,6.6,6.6,0,0,1,6.25-7A6.48,6.48,0,0,1,525.23,521.44Z"/><path class="cls-3" d="M530.61,503.36a5.92,5.92,0,0,1,6.16,6.34,6.24,6.24,0,0,1-6.3,6.3,6.42,6.42,0,0,1-6.24-6.47A6,6,0,0,1,530.61,503.36Z"/><path class="cls-26" d="M475.34,555.3a6.45,6.45,0,0,1,6.1-6.67,6.35,6.35,0,0,1,6.34,6.4c0,3.83-2.13,5.91-5.84,6.22A5.91,5.91,0,0,1,475.34,555.3Z"/><path class="cls-23" d="M494.46,538.05a6.5,6.5,0,0,1,6.41,6.34,6.46,6.46,0,0,1-12.92-.06A6.63,6.63,0,0,1,494.46,538.05Z"/><path class="cls-21" d="M562.24,464.78c4.23.2,6.27,2.36,6.55,6a6.27,6.27,0,0,1-6.29,6.45,6.2,6.2,0,0,1-6.16-6.57C556.7,467,558.9,465,562.24,464.78Z"/><path class="cls-23" d="M468.07,559.08a5.85,5.85,0,0,1,6.36,6.09c0,3.76-2.1,5.9-5.69,6.37-3.27.43-6.58-2.63-6.77-5.94A6.28,6.28,0,0,1,468.07,559.08Z"/><path class="cls-20" d="M558.72,484.2a6.1,6.1,0,0,1-6.4,6.23c-3.67-.2-5.92-2.12-6.09-6a6.37,6.37,0,0,1,6-6.69C555.56,477.66,558.66,480.75,558.72,484.2Z"/><path class="cls-19" d="M541.47,503.53a6.16,6.16,0,0,1-6-6.65,6,6,0,0,1,6.5-6,6.27,6.27,0,0,1,6.15,6.49A6.82,6.82,0,0,1,541.47,503.53Z"/><path class="cls-7" d="M454.62,581.16a6.21,6.21,0,0,1-6.1-6.48c.17-3.85,2.55-5.8,6.1-5.88,3.72-.08,5.81,2.38,6.24,5.89C461.26,577.94,458,581.15,454.62,581.16Z"/><path class="cls-21" d="M578.39,457.36c-.36,3.47-2.06,5.87-5.93,6s-5.92-1.95-6.19-5.7a6,6,0,0,1,6-6.51A6.3,6.3,0,0,1,578.39,457.36Z"/><path class="cls-24" d="M582.55,437.38c2.63.21,4.78,2.1,4.91,5.88a5.88,5.88,0,0,1-6.34,6.11c-3.52-.25-5.52-2.37-5.87-5.74S577.88,437.35,582.55,437.38Z"/><path class="cls-24" d="M590,423a6,6,0,0,1,6.1,6,6.17,6.17,0,0,1-6.26,5.93c-3.56-.22-5.52-2.36-5.81-5.82A5.88,5.88,0,0,1,590,423Z"/><path class="cls-21" d="M446.7,584.2c-.35,3.68-2.26,5.85-6.1,5.84s-5.79-2.42-6.08-6c-.25-3.19,2.85-6.06,6.15-5.92C444.46,578.27,446.43,580.37,446.7,584.2Z"/><path class="cls-5" d="M420.46,592.47c.28-3.49,2.22-5.61,6-5.58,3.58,0,5.56,2.14,5.7,5.62.16,3.81-2.06,6-5.71,6.13S420.7,596.51,420.46,592.47Z"/><path class="cls-24" d="M521.66,486c3.44.28,5.59,2,5.63,5.67s-2.1,5.6-5.51,6c-3.07.32-6.41-3-6.09-6C516,488.26,518,486.15,521.66,486Z"/><path class="cls-27" d="M516,503.9c0,3.3-2.8,6.31-6,6a6,6,0,0,1-5.81-5.84c-.27-3,3.12-6.32,6.1-6C513.7,498.39,515.74,500.36,516,503.9Z"/><path class="cls-23" d="M473.63,532.14c3.31.3,5.33,2.26,5.48,5.78a5.92,5.92,0,0,1-6.26,5.81c-3.48-.43-5.42-2.53-5.31-6.13S469.78,532.2,473.63,532.14Z"/><path class="cls-25" d="M460.33,542.42c3.28.44,5.36,2.2,5.41,5.81.06,3.24-3,6.27-6.13,5.77-3.29-.53-5.42-2.48-5.33-6.11A5.67,5.67,0,0,1,460.33,542.42Z"/><path class="cls-20" d="M498.29,509.92c3.42.31,5.58,2,5.79,5.6a5.67,5.67,0,0,1-5.72,6.17c-3.42-.17-5.64-2-5.81-5.59C492.38,512.19,494.59,510.37,498.29,509.92Z"/><path class="cls-24" d="M491.72,527.93c.08,2.9-2.34,4.58-5.58,5s-6.16-2.78-6-6c.19-3.64,2.45-5.65,5.85-5.59S491.64,523.27,491.72,527.93Z"/><path class="cls-25" d="M532.09,485c-3.11-.39-5.23-2.2-5.26-5.83s2.14-5.59,5.58-5.9c3.11-.28,6.49,3.12,6.06,6.1C538,482.63,536.09,484.83,532.09,485Z"/><path class="cls-25" d="M543.19,460.32c3.53.1,5.45,2.35,5.5,5.73A5.33,5.33,0,0,1,543,471.8c-3.38-.05-5.73-2.11-5.65-5.78C537.4,462.51,539.28,460.43,543.19,460.32Z"/><path class="cls-23" d="M547.15,452.8c.19-3.57,2-5.73,5.54-5.85s5.78,2,5.94,5.44-2.28,5.75-5.57,5.91S547.57,456.3,547.15,452.8Z"/><path class="cls-24" d="M440.78,557.89c.31-3.3,1.92-5.49,5.68-5.49,3.47,0,5.5,2.05,5.7,5.22.23,3.54-2.15,5.84-5.53,6S441,561.74,440.78,557.89Z"/><path class="cls-25" d="M556.67,439c.1-3.59,1.93-5.59,5.24-5.8,3.62-.23,5.83,1.89,5.88,5.4.05,3.14-1.6,5.45-5.19,5.6S557.09,442.34,556.67,439Z"/><path class="cls-20" d="M426.93,567.51c.22-3.34,1.72-5.6,5.13-5.72s5.81,1.4,5.9,5.2c.07,3.36-1.6,5.36-5,5.63C429.28,572.91,427.54,570.77,426.93,567.51Z"/><path class="cls-27" d="M569.94,419.12c4.55-.11,6.25,2,6.69,5.15s-2.48,5.7-5.69,5.61c-3.47-.11-5.37-2.23-5.38-5.41S567.51,419.24,569.94,419.12Z"/><path class="cls-8" d="M418.62,570.49c3.2.38,5.12,2.16,4.93,5.59s-2,5.23-5.54,5.11-5.21-2.17-5.1-5.52S415.08,570.58,418.62,570.49Z"/><path class="cls-25" d="M489.74,492.9c3.4.29,5.27,2.22,5.14,5.55-.13,3.06-1.94,5-5.17,5.06-3.44,0-5.43-2.07-5.45-5.3S486.3,493.05,489.74,492.9Z"/><path class="cls-25" d="M477.28,515.11c-3.39-.46-5.22-2.33-5-5.73.18-3.14,1.9-4.93,5.19-4.91,3.54,0,5.38,2.18,5.36,5.36S480.57,514.86,477.28,515.11Z"/><path class="cls-3" d="M574,410.31c.22-4,2.19-5.69,5.53-5.61s5.29,1.85,5.13,5.38-2.13,5.25-5.44,5.23C575.73,415.3,574.33,413,574,410.31Z"/><path class="cls-28" d="M464.35,525.82a4.75,4.75,0,0,1-4.82-5.06c0-3.32,2.05-5.53,5.37-5.45a5,5,0,0,1,5.16,5.64C469.88,524,468,525.84,464.35,525.82Z"/><path class="cls-29" d="M523.91,466.24c-4.13-.08-6-2.18-6-5.33a5,5,0,0,1,5-5.23,5,5,0,0,1,5.6,5.15A4.92,4.92,0,0,1,523.91,466.24Z"/><path class="cls-28" d="M496.07,486.16c.26-3.44,2.3-5.38,5.53-5.23a5.09,5.09,0,0,1,5.12,5.69,5,5,0,0,1-5.36,5C498.1,491.52,496.17,489.58,496.07,486.16Z"/><path class="cls-29" d="M517.76,472.56c0,4.8-2.15,6.74-5.28,6.68a5.15,5.15,0,0,1-5.34-5.56,5.07,5.07,0,0,1,5.22-5.17C515.62,468.42,517.64,470.33,517.76,472.56Z"/><path class="cls-25" d="M398.39,583.83c0-3.34,2.11-5.14,5.05-5.18a5.11,5.11,0,0,1,5.57,5.27c0,3.32-2.21,5.36-5.46,5.38S398.38,587.28,398.39,583.83Z"/><path class="cls-24" d="M586.76,400.27c-3.24-.35-5.15-2.24-5-5.58a4.83,4.83,0,0,1,5.35-4.85c3.14.18,5.32,2.12,5.08,5.62C592,398.65,590.05,400.18,586.76,400.27Z"/><path class="cls-21" d="M538.65,448.09c-.34,3.09-2,4.83-5.26,4.72-3.4-.1-5.4-2-5.23-5.38a4.9,4.9,0,0,1,5.25-5C536.55,442.56,538.6,444.53,538.65,448.09Z"/><path class="cls-25" d="M389.65,596.61c-4.08.15-6-1.72-6.2-4.72a5,5,0,0,1,5.22-5.56,4.78,4.78,0,0,1,5.16,5.08C393.82,594.55,392.09,596.38,389.65,596.61Z"/><path class="cls-23" d="M451.45,536.23c-2.89-.27-4.74-1.79-4.86-5.05-.14-3.62,2.19-5.44,5.24-5.41a5,5,0,0,1,5.19,5.59C456.82,534.36,454.9,536.17,451.45,536.23Z"/><path class="cls-24" d="M537.72,434.11c.43-2.94,1.86-5.17,5-5.24,3.34-.08,5.37,1.89,5.37,5.27A4.78,4.78,0,0,1,543,439.2C540,439.23,538.22,437.19,537.72,434.11Z"/><path class="cls-24" d="M437.71,546.07c-2.79-.43-4.65-2-4.57-5.26s2.05-4.89,5.14-4.91c3.48,0,5.38,2.25,5.18,5.43C443.28,544.26,441.19,546.07,437.71,546.07Z"/><path class="cls-11" d="M429.4,550.84c-.22,2.72-1.89,4.51-5.15,4.49s-5.13-2.09-5.07-5.13a4.9,4.9,0,0,1,5.21-5.11C427.37,545.17,429.4,547,429.4,550.84Z"/><path class="cls-20" d="M557,420.47c-.26,2.9-2,4.65-5.26,4.45s-4.76-2.19-4.62-5.42,2.31-4.64,5-4.62C555.21,414.9,557,416.83,557,420.47Z"/><path class="cls-24" d="M410.07,554.08c3.31.4,5.16,2,4.91,5.34-.22,3.07-2,4.59-5,4.53-3.42-.06-4.87-2.13-4.78-5.27S407.25,554.22,410.07,554.08Z"/><path class="cls-23" d="M555.67,406c-.07-3.63,1.86-5.4,4.93-5.41a4.46,4.46,0,0,1,4.84,4.75c.07,3.31-1.85,5.09-5,5.17S555.9,408.7,555.67,406Z"/><path class="cls-30" d="M492.65,463.43c2.77.63,4.75,2.15,4.67,5.11a4.54,4.54,0,0,1-4.84,4.77c-3.11,0-5-1.83-4.82-5.16C487.8,465,489.94,463.92,492.65,463.43Z"/><path class="cls-28" d="M390.66,566.62a4.51,4.51,0,0,1,4.58-4.35,4.74,4.74,0,0,1,5.22,5,4.65,4.65,0,0,1-4.89,4.82C392.76,572.1,390.82,570.46,390.66,566.62Z"/><path class="cls-28" d="M456.1,498.59c3.34.22,5,1.74,5,4.85s-1.91,4.76-4.78,4.77a4.57,4.57,0,0,1-4.76-4.9A4.48,4.48,0,0,1,456.1,498.59Z"/><path class="cls-24" d="M476.13,481.28c.09-3.47,1.49-5.36,4.52-5.48,3.22-.12,5.16,1.79,5.12,4.87a4.43,4.43,0,0,1-4.8,4.7C478,485.38,476.36,483.78,476.13,481.28Z"/><path class="cls-31" d="M502.63,460.57a4.47,4.47,0,0,1-4.08-5.26c.32-2.73,2.31-4.71,5.29-4.3,2.8.38,4.54,2.17,4.21,5.3S505.75,460.61,502.63,460.57Z"/><path class="cls-25" d="M473.68,492.08c-.16,3.09-1.6,4.83-4.67,4.92s-4.86-1.7-5-4.51c-.19-3.17,1.93-5.08,5-5.14S473.4,489.28,473.68,492.08Z"/><path class="cls-30" d="M573.13,391.47c-.17,2.4-1.81,4-4.86,3.95s-4.75-1.78-4.71-4.79a4.55,4.55,0,0,1,4.9-4.76C571.18,385.94,573.2,387.62,573.13,391.47Z"/><path class="cls-25" d="M443.33,509.14c3.19.14,4.95,2,4.94,4.82a4.56,4.56,0,0,1-4.82,4.83c-3,0-4.69-1.79-4.72-4.82S440.45,509.37,443.33,509.14Z"/><path class="cls-25" d="M380.58,579.45c-3-.11-4.87-1.69-4.83-4.71a4.49,4.49,0,0,1,4.89-4.77,4.39,4.39,0,0,1,4.6,4.53C385.3,577.59,383.69,579.21,380.58,579.45Z"/><path class="cls-29" d="M514.08,438.09c2.39.15,4.24,1.35,4.39,4.28s-1.44,5-4.41,5.18A4.45,4.45,0,0,1,509,443C508.89,440,510.65,438.28,514.08,438.09Z"/><path class="cls-28" d="M430.06,528.56c-3.06-.13-4.61-1.69-4.66-4.76a4.33,4.33,0,0,1,4.4-4.63,4.49,4.49,0,0,1,5,4.61C434.82,526.59,433.16,528.47,430.06,528.56Z"/><path class="cls-32" d="M420.72,534.36c-.23,2.17-1.94,3.82-4.94,3.63a4.25,4.25,0,0,1-4.25-4.78c.15-2.94,2.08-4.78,5.05-4.54C419.22,528.89,420.89,530.56,420.72,534.36Z"/><path class="cls-15" d="M532.53,410.5c2.87.36,4.84,1.6,5.06,4.4a4.4,4.4,0,0,1-4.45,5.13c-3,.18-4.84-1.93-4.91-4.73S530.12,411.1,532.53,410.5Z"/><path class="cls-29" d="M575,371.06c3.8,0,5.36,1.81,5.37,4.73s-2.07,4.7-4.87,4.6a4.24,4.24,0,0,1-4.42-4.56C571,372.67,572.69,371.29,575,371.06Z"/><path class="cls-27" d="M519,429.39c.13-2.91,1.67-4.77,4.7-4.77a4.19,4.19,0,0,1,4.58,4.43c.07,3.08-1.56,4.79-4.64,4.81C520.81,433.88,519.28,432.31,519,429.39Z"/><path class="cls-28" d="M365.92,577.23c2.38.21,4,1.69,4,4.53,0,3.19-2,4.53-5,4.4a4,4,0,0,1-4.16-4.72C361,578.78,362.59,577.12,365.92,577.23Z"/><path class="cls-11" d="M536.87,401c.5-2.67,2-4.61,4.68-4.56a4.62,4.62,0,1,1-.17,9.24C538.61,405.62,537.35,403.51,536.87,401Z"/><path class="cls-28" d="M383,550.74c.26-3.17,1.74-5,4.56-4.85a4.27,4.27,0,0,1,4.35,4.73c-.15,2.84-2.1,4.32-4.83,4.18A4.09,4.09,0,0,1,383,550.74Z"/><path class="cls-11" d="M345.33,588c.35-2.85,1.91-4.48,4.67-4.37s4.53,1.91,4.38,4.56a4.41,4.41,0,0,1-4.67,4.38C347,592.47,345.62,590.55,345.33,588Z"/><path class="cls-20" d="M401.86,537.64c2.57.26,4.51,1.36,4.58,4.34.06,2.81-1.35,4.57-4.23,4.69s-4.5-1.4-4.67-4.25S399,538.06,401.86,537.64Z"/><path class="cls-33" d="M582.53,355.86c2.8.18,4.26,1.75,4.17,4.61s-1.77,4.34-4.6,4.27-4.35-1.75-4.25-4.59S579.56,355.86,582.53,355.86Z"/><path class="cls-34" d="M460.11,470.21c2.41.44,4.52,1.52,4.64,4.37s-1.75,4.42-4.42,4.55a3.86,3.86,0,0,1-4.35-4C455.82,472.37,457.23,470.72,460.11,470.21Z"/><path class="cls-24" d="M549.76,381.78c2.77.46,4.3,2,4.27,4.81s-1.73,4.08-4.24,4.1c-2.71,0-4.5-1.33-4.48-4.35S547.18,382.22,549.76,381.78Z"/><path class="cls-35" d="M435,492.32c2.89.18,4.39,1.94,4.36,4.61a4,4,0,0,1-4.24,4.15,4,4,0,0,1-4.38-4.05C430.61,494.27,432.25,492.68,435,492.32Z"/><path class="cls-36" d="M489.65,437.84c.44-2.42,1.41-4.28,4.18-4.32s4.52,1.28,4.52,4.23c0,2.61-1.42,4.25-4,4.39C491.52,442.29,490.17,440.43,489.65,437.84Z"/><path class="cls-37" d="M476.39,463.08c-.1,2.58-1.42,4.17-4.35,4.14s-4.32-1.76-4.3-4.46a4,4,0,0,1,4.16-4.19C474.6,458.51,476.33,459.9,476.39,463.08Z"/><path class="cls-25" d="M588.42,340.4c2.7.21,4.14,1.68,4.12,4.31,0,2.85-1.68,4.52-4.48,4.43a4.21,4.21,0,0,1-4.24-4.35C583.8,342.09,585.59,340.49,588.42,340.4Z"/><path class="cls-23" d="M443.59,486.3c.09-3.12,1.73-4.75,4.43-4.69a4.12,4.12,0,0,1,4.29,4.6c-.07,2.62-1.65,4-4.21,4.1C445.29,490.39,443.71,488.94,443.59,486.3Z"/><path class="cls-7" d="M479.1,451.37c-.09-3.44,1.51-5.14,4.17-5.22a4.08,4.08,0,0,1,4.48,4.39c0,2.51-1.36,4.21-4,4.34S479.29,453.71,479.1,451.37Z"/><path class="cls-38" d="M368,557.82c.59-2.65,2.1-4.51,4.85-4.24a4,4,0,0,1,3.89,4.51c-.12,3-1.91,4.23-4.66,4.08S368.23,560.3,368,557.82Z"/><path class="cls-39" d="M334.68,589.53c2.23.18,3.65,1.51,3.64,4.23s-1.63,4.27-4.11,4.25a4.13,4.13,0,0,1-4.43-4.55C329.91,590.93,331.64,589.54,334.68,589.53Z"/><path class="cls-40" d="M504.45,420.13c2.71.28,4.22,2,4.1,4.41-.13,2.64-1.86,4.48-4.75,4.18-2.56-.27-3.92-2-3.74-4.61S501.94,420.27,504.45,420.13Z"/><path class="cls-41" d="M417.54,507.52c.13-3,1.3-4.75,4-4.88a4.28,4.28,0,1,1,.32,8.56C419.09,511.27,417.93,509.57,417.54,507.52Z"/><path class="cls-42" d="M593.44,324.36c2.56.55,4.44,1.81,4.49,4.35.05,2.76-1.58,4.37-4.48,4.31-2.74,0-4-1.72-4-4.25C589.36,326,591.47,325.14,593.44,324.36Z"/><path class="cls-29" d="M407.76,512.14c2.43.23,4.19,1.17,4.38,4s-1.19,4.34-3.67,4.61c-2.81.31-4.59-1.51-4.76-4.15C403.55,514.08,405.16,512.52,407.76,512.14Z"/><path class="cls-9" d="M552.9,371.58c0-2.67,1.19-4.22,3.93-4.36s4.41,1.28,4.63,3.76a4.19,4.19,0,0,1-4.3,4.72C554.67,375.81,553.05,374.26,552.9,371.58Z"/><path class="cls-29" d="M518.05,410.39c-.14,2.93-1.78,4.46-4.23,4.52a3.78,3.78,0,0,1-4.18-4.14c0-2.61,1.33-4.19,4.08-4.2S517.72,408.11,518.05,410.39Z"/><path class="cls-29" d="M522.34,392.33c3,0,4.47,1.69,4.6,4.11a4.06,4.06,0,0,1-4.14,4.37,4,4,0,0,1-4.29-4.14C518.44,394,520,392.64,522.34,392.33Z"/><path class="cls-43" d="M559.67,355.72c.41-2.42,1.73-3.84,4.45-3.69s4.14,1.83,4,4.27a4,4,0,0,1-4.47,3.94C561.1,360.1,559.74,358.44,559.67,355.72Z"/><path class="cls-44" d="M357.63,560.82c2.44.22,3.85,1.57,3.74,4.27s-1.72,4-4.28,3.89-4.16-1.68-4-4.26S354.83,560.8,357.63,560.82Z"/><path class="cls-11" d="M341.67,566.89c2.5.42,4.19,1.72,4.23,4.34a3.86,3.86,0,0,1-3.81,4.09,3.93,3.93,0,0,1-4.48-3.92C337.45,568.86,339.3,567.48,341.67,566.89Z"/><path class="cls-43" d="M394,521c2.54.46,4,1.89,3.86,4.56-.13,2.44-1.49,3.85-4,3.84-2.68,0-4.23-1.48-4.18-4.13S391.45,521.3,394,521Z"/><path class="cls-34" d="M383.37,533.42c-.06,2.74-1.6,4.18-3.86,4.25a4.1,4.1,0,0,1-.38-8.19C381.79,529.41,383.17,531,383.37,533.42Z"/><path class="cls-45" d="M571.27,344.42c-3.94.14-5.34-1.5-5.29-4a3.55,3.55,0,0,1,3.88-3.8c2.66,0,4.17,1.42,4.16,4A3.53,3.53,0,0,1,571.27,344.42Z"/><path class="cls-46" d="M455.59,457.67a3.72,3.72,0,0,1-3.66,3.6,3.83,3.83,0,0,1-4.36-3.94,3.74,3.74,0,0,1,3.63-4.19C453.67,452.93,455.37,454.39,455.59,457.67Z"/><path class="cls-47" d="M534.6,367.35c-.15-2.62,1.3-4.11,3.62-4.24,2.5-.14,4.26,1.18,4.23,4a3.93,3.93,0,0,1-7.85.22Z"/><path class="cls-48" d="M462.79,441.16c3.32.15,4.58,2,4.45,4.38-.11,2.26-1.68,3.69-4.15,3.6s-3.93-1.52-3.95-3.83A3.85,3.85,0,0,1,462.79,441.16Z"/><path class="cls-49" d="M526.94,382c.09-2.42,1.22-3.88,3.73-4,2.7-.11,4.14,1.23,4.2,3.94a3.56,3.56,0,0,1-3.69,4C528.54,386.09,527.09,384.65,526.94,382Z"/><path class="cls-50" d="M439.46,464.55c2.22.51,4,1.65,4,4a3.84,3.84,0,0,1-4.14,4.17c-2.64,0-4-1.94-4-4.37S437.34,465,439.46,464.55Z"/><path class="cls-17" d="M325.87,572.71c2,.42,3.78,1.13,3.95,3.74s-1.21,4-3.44,4.22a3.72,3.72,0,0,1-4.36-3.83C321.93,574.38,323.56,573.25,325.87,572.71Z"/><path class="cls-29" d="M368.31,541.27a3.65,3.65,0,0,1-4,3.76,3.52,3.52,0,0,1-3.91-3.8c0-2.51,1.54-4.19,4.21-4.07C367.07,537.26,368.18,538.91,368.31,541.27Z"/><path class="cls-40" d="M422.6,479.41c.53-2.23,1.56-3.78,4.15-3.71,2.86.07,4,1.78,3.83,4.31s-1.78,3.6-4.22,3.45S422.83,481.72,422.6,479.41Z"/><path class="cls-45" d="M475.44,428.76c1.23,0,2.67,1.31,2.72,3.7.06,2.62-1.37,4.06-4.1,4-2.58-.05-3.69-1.56-3.66-3.93S471.68,428.75,475.44,428.76Z"/><path class="cls-51" d="M417.56,489.94c-.31,2.06-1.45,3.79-3.78,3.91a3.82,3.82,0,0,1-4.23-4.06,3.65,3.65,0,0,1,3.93-3.83C416,485.91,417.11,487.49,417.56,489.94Z"/><path class="cls-17" d="M490.6,406.17c.31-2.77,1.68-4.22,4-4.12s3.7,1.68,3.69,4.06-1.56,3.67-4,3.63A3.54,3.54,0,0,1,490.6,406.17Z"/><path class="cls-52" d="M484.63,415.44c2.37.47,4,1.71,4,4.08s-1.55,3.78-4,3.81-3.81-1.39-3.81-3.87S482.48,415.86,484.63,415.44Z"/><path class="cls-29" d="M579.32,324.66c-.29,2.29-1.39,3.82-3.9,3.83a3.69,3.69,0,0,1-3.95-3.81,3.78,3.78,0,0,1,3.91-3.93C577.73,320.66,579,322.35,579.32,324.66Z"/><path class="cls-53" d="M545.12,348.1c2.78.22,4.1,1.4,4.07,4a3.53,3.53,0,0,1-3.62,3.66,3.67,3.67,0,0,1-4-3.79C541.47,349.45,543.06,348.3,545.12,348.1Z"/><path class="cls-30" d="M399.65,495.71c2.65.1,4,1.4,4,3.86a3.57,3.57,0,0,1-3.84,3.87,3.74,3.74,0,0,1-3.87-3.94C395.86,497.11,397.41,495.85,399.65,495.71Z"/><path class="cls-34" d="M371.5,513.11c2.26.15,3.4,1.58,3.32,4a3.34,3.34,0,0,1-3.64,3.47,3.45,3.45,0,0,1-3.65-3.55C367.52,514.78,368.66,513.14,371.5,513.11Z"/><path class="cls-28" d="M503.72,388.2c2.21.15,3.63,1.3,3.59,3.82a3.5,3.5,0,0,1-3.42,3.77,3.56,3.56,0,0,1-4.06-3.63C499.78,389.88,501,388.29,503.72,388.2Z"/><path class="cls-32" d="M385.58,504.54c2.24.17,3.66,1.41,3.8,3.55s-.84,4-3.5,4.11c-2.37.1-3.55-1.21-3.79-3.36C381.82,506.32,383.39,505.13,385.58,504.54Z"/><path class="cls-36" d="M349.37,544.24c2.36.43,3.66,1.72,3.51,4.21a3.37,3.37,0,0,1-3.74,3.4,3.56,3.56,0,0,1-3.85-3.87C345.37,545.68,347,544.38,349.37,544.24Z"/><path class="cls-45" d="M329.72,554.43c.39-2.06,1.43-3.72,3.6-3.83a3.77,3.77,0,0,1,.6,7.51C331.4,558.35,330.34,556.57,329.72,554.43Z"/><path class="cls-29" d="M313.82,581.54c-.26,2.66-1.68,4-4.07,3.94a3.41,3.41,0,0,1-3.4-3.8c0-2.43,1.35-3.76,4-3.57A3.46,3.46,0,0,1,313.82,581.54Z"/><path class="cls-54" d="M356.57,520.77a3.63,3.63,0,1,1-.47,7.25,3.34,3.34,0,0,1-3.4-3.82C352.89,522,354.22,520.78,356.57,520.77Z"/><path class="cls-55" d="M405.25,469c2.17.32,3.55,1.68,3.56,3.75a3.6,3.6,0,1,1-7.2,0C401.68,470.57,403.07,469.34,405.25,469Z"/><path class="cls-56" d="M465.08,410.76c2,.59,3.67,1.65,3.48,3.92a3.56,3.56,0,0,1-3.8,3.5c-2.32,0-3.42-1.7-3.37-3.81S462.94,411,465.08,410.76Z"/><path class="cls-11" d="M580.05,305c2.27,0,3.62,1,3.73,3.4.13,2.59-1.39,4-3.7,4a3.56,3.56,0,0,1-3.59-3.76A3.28,3.28,0,0,1,580.05,305Z"/><path class="cls-57" d="M439,439.93c.23-2.43,1.52-3.8,3.57-4a3.4,3.4,0,0,1,3.88,3.25,3.45,3.45,0,0,1-3.64,4C440.44,443.25,439.71,441.51,439,439.93Z"/><path class="cls-43" d="M512.21,373.9c2,.07,3.43,1,3.45,3.37,0,2.14-.72,3.71-3.18,3.86s-4-1.18-4.06-3.57C508.34,375.36,509.71,374.08,512.21,373.9Z"/><path class="cls-58" d="M548.05,336.34a3.25,3.25,0,0,1,3.48-3.64,3.39,3.39,0,0,1,3.79,3.86,3.34,3.34,0,0,1-3.78,3.41A3.26,3.26,0,0,1,548.05,336.34Z"/><path class="cls-59" d="M454,423.79c2.64.13,4,1.51,3.9,3.64a3.34,3.34,0,0,1-3.8,3.41c-2.22-.12-3.71-1.35-3.58-3.61A3.36,3.36,0,0,1,454,423.79Z"/><path class="cls-17" d="M560.68,320.32a3.41,3.41,0,0,1-3.32,3.83c-2.23.24-3.47-1.23-3.61-3.41s1.12-3.75,3.24-3.82A3.33,3.33,0,0,1,560.68,320.32Z"/><path class="cls-60" d="M321.38,559.44c-.09,2.77-1.52,4-3.62,4s-3.43-1.44-3.42-3.64,1.35-3.43,3.56-3.53C320.38,556.16,321,557.93,321.38,559.44Z"/><path class="cls-29" d="M478.46,400.76c-.13,2.25-.91,3.94-3.26,4a3.35,3.35,0,0,1-3.65-3.5c-.13-2.35,1.39-3.45,3.52-3.52A3.13,3.13,0,0,1,478.46,400.76Z"/><path class="cls-29" d="M430.84,447.71c2.52.28,3.63,1.63,3.52,3.82s-1.5,3.36-3.75,3.23-3.33-1.47-3.24-3.72S429,447.88,430.84,447.71Z"/><path class="cls-40" d="M519.57,358.93c2.06.48,3.77,1.22,3.8,3.62,0,2.19-1,3.73-3.29,3.86s-3.51-1.17-3.68-3.44S517.68,359.59,519.57,358.93Z"/><path class="cls-15" d="M293.64,582.28c2.19.28,3.59,1.37,3.64,3.67a3.46,3.46,0,1,1-6.92.29C290.15,583.83,291.65,582.86,293.64,582.28Z"/><path class="cls-61" d="M341,527.6c2.33.55,3.69,1.73,3.51,4a3.24,3.24,0,0,1-3.4,3.23,3.43,3.43,0,0,1-3.6-3.59C337.54,529,339.24,528.06,341,527.6Z"/><path class="cls-24" d="M414.79,462.12c.2-2.1,1.45-3.58,3.6-3.46a3.39,3.39,0,0,1,3.42,3.77c-.09,2.26-1.47,3.65-3.58,3.58S414.83,464.51,414.79,462.12Z"/><path class="cls-62" d="M391.58,478.85c2.14.47,3.61,1.51,3.53,3.84a3.3,3.3,0,0,1-3.28,3.43,3.37,3.37,0,0,1-3.7-3.49C388,480.19,389.71,479.42,391.58,478.85Z"/><path class="cls-36" d="M527.58,344.18c1.35,0,2.8,1.09,2.84,3.34a3.21,3.21,0,0,1-3,3.58c-2.52.21-3.93-1.28-4-3.63C523.31,345.5,524.6,344.31,527.58,344.18Z"/><path class="cls-36" d="M580.71,292.78c.2-2.6,1.41-3.92,3.67-3.87,2.07,0,3.14,1.42,3.25,3.43a3,3,0,0,1-3.08,3.48A3.39,3.39,0,0,1,580.71,292.78Z"/><path class="cls-55" d="M298.23,564.66c.68-2,1.67-3.71,3.94-3.52a3.34,3.34,0,0,1,3.1,3.55,3.16,3.16,0,0,1-3.72,3.27C299.48,567.81,298.76,566.25,298.23,564.66Z"/><path class="cls-46" d="M277.78,586c1.79.48,3.1,1.42,3,3.52-.06,2.34-1.42,3.38-3.65,3.3a2.94,2.94,0,0,1-3.09-3.34C274.12,587.15,275.62,586.21,277.78,586Z"/><path class="cls-63" d="M493.25,369.57c1.75.54,3.3,1.25,3.24,3.45-.07,2.36-1.41,3.37-3.67,3.24a2.92,2.92,0,0,1-3-3.41C490,370.9,491.39,369.92,493.25,369.57Z"/><path class="cls-30" d="M484.47,383.74c2.21.37,3.43,1.55,3.37,3.84s-1.4,3.16-3.37,3.12-3.33-1-3.38-3.15S482.39,384.15,484.47,383.74Z"/><path class="cls-64" d="M381.12,491.73c-.53,2-1.5,3.44-3.88,3.22a3.11,3.11,0,0,1-3.07-3.47,3.26,3.26,0,0,1,3.8-3.26C380,488.39,380.83,489.88,381.12,491.73Z"/><path class="cls-65" d="M530,331.91a3,3,0,0,1,3.31-3c2,0,3.33,1,3.37,3.12a3.17,3.17,0,0,1-3.53,3.5A3.22,3.22,0,0,1,530,331.91Z"/><path class="cls-64" d="M418.8,433.84c.22-2,1.25-3.18,3.33-3.2s3.33.91,3.37,3.07a3.07,3.07,0,0,1-3.2,3.35C420.4,437.11,419.15,435.84,418.8,433.84Z"/><path class="cls-60" d="M587.52,272.57c2,.22,3.42,1.43,3.47,3.3.06,2.11-1.24,3.47-3.58,3.44s-3.07-1.39-3-3.36A3.18,3.18,0,0,1,587.52,272.57Z"/><path class="cls-29" d="M324.81,534.17c2.57,0,3.79.9,3.95,3s-.86,3.4-2.84,3.63a3.23,3.23,0,0,1-3.81-3.27A3.35,3.35,0,0,1,324.81,534.17Z"/><path class="cls-54" d="M363,496.72c2.1,0,3.37,1,3.41,3.1,0,2-.91,3.44-2.93,3.6a3.31,3.31,0,0,1-3.69-3.42A3.13,3.13,0,0,1,363,496.72Z"/><path class="cls-36" d="M558.64,304.33c.26-2.13,1.43-3.17,3.53-3.09a3,3,0,0,1,3.22,3.35,3.17,3.17,0,0,1-3.74,3.34C559.65,307.77,558.71,306.28,558.64,304.33Z"/><path class="cls-66" d="M445.36,406c1.82.62,3.3,1.68,3,3.74a3.06,3.06,0,0,1-3.76,2.76,2.91,2.91,0,0,1-2.75-3.27C442,407.13,443.49,406.3,445.36,406Z"/><path class="cls-34" d="M501.43,355c2,.4,3.14,1.62,3,3.61a3,3,0,0,1-3.46,3.06A2.86,2.86,0,0,1,498,358.2,3.2,3.2,0,0,1,501.43,355Z"/><path class="cls-67" d="M260.9,588.94c2,.51,3.52,1.42,3.34,3.54a3.06,3.06,0,0,1-3.51,3.07,2.94,2.94,0,0,1-3-3.1C257.68,590.22,259.34,589.57,260.9,588.94Z"/><path class="cls-68" d="M430.7,422.11c.21-2.14,1.26-3.57,3.28-3.55a3,3,0,0,1,3.17,3.37c0,1.9-.95,3-2.88,3.09C432.11,425.15,431.11,423.9,430.7,422.11Z"/><path class="cls-55" d="M538.61,313c2,.24,3.61,1.14,3.58,3.17a3.07,3.07,0,0,1-3.26,3.33,2.93,2.93,0,0,1-3.19-2.82C535.47,314.52,537,313.68,538.61,313Z"/><path class="cls-69" d="M345,507.75c0-2.11,1-3.21,3.13-3.27a3,3,0,0,1,3.43,3,3.28,3.28,0,0,1-6.56.22Z"/><path class="cls-57" d="M566.18,285c1.93.34,3.15,1.39,3.06,3.49a3.21,3.21,0,0,1-6.42-.1A3.32,3.32,0,0,1,566.18,285Z"/><path class="cls-70" d="M332.71,511.17c2.09.46,3.49,1.46,3.41,3.52a3,3,0,0,1-3.12,3,3,3,0,0,1-3.19-3.36A3.53,3.53,0,0,1,332.71,511.17Z"/><path class="cls-47" d="M400.15,455.61c-.26,2-1.34,3.19-3.45,3.1a3.08,3.08,0,0,1-.08-6.14C398.71,452.45,399.86,453.55,400.15,455.61Z"/><path class="cls-71" d="M306.61,543.18c0-2.09.87-3.33,3.09-3.37a2.82,2.82,0,0,1,3.15,2.84c.19,2.13-1.12,3.26-3.14,3.33A2.7,2.7,0,0,1,306.61,543.18Z"/><path class="cls-72" d="M386.57,465.65c-.38,1.88-1.41,3.31-3.46,3.06a3.18,3.18,0,0,1,.69-6.31C385.67,462.52,386.44,463.86,386.57,465.65Z"/><path class="cls-73" d="M410.57,442c1.33.16,2.6,1.13,2.47,3.32-.11,2-1.44,2.8-3.2,2.81a2.92,2.92,0,0,1-3.18-3.36C406.8,443.21,407.87,441.82,410.57,442Z"/><path class="cls-74" d="M590.25,256.25c1.69.28,2.94,1.11,3.06,3,.13,2-.92,3.49-2.94,3.52s-3.17-1.27-3.12-3.36C587.3,257.53,588.46,256.6,590.25,256.25Z"/><path class="cls-29" d="M458.69,396.06c-.15,2-1.17,3.27-3.23,3.28a3,3,0,0,1-.41-6.06C457.15,393,458.26,394.11,458.69,396.06Z"/><path class="cls-11" d="M505.11,343.21c.59-1.9,1.63-3.19,3.74-3a2.91,2.91,0,0,1,2.83,3.21,3,3,0,0,1-3.61,2.89C506.24,346.16,505.4,344.88,505.11,343.21Z"/><path class="cls-75" d="M369.17,471.79c2.4,0,3.41,1.26,3.41,2.94,0,2-1.31,3.11-3.44,3a2.7,2.7,0,0,1-2.72-3.17C366.55,472.79,367.6,471.61,369.17,471.79Z"/><path class="cls-76" d="M468.46,382.62c-.31,1.69-1.13,2.95-3,3A2.94,2.94,0,0,1,462,382.5c0-1.85,1.38-2.83,3.2-2.85S468.09,380.81,468.46,382.62Z"/><path class="cls-77" d="M540.55,300.45a3.12,3.12,0,0,1,3-3,2.85,2.85,0,0,1,3.35,3.05c0,1.69-1.16,2.81-3.07,2.82S541,302.21,540.55,300.45Z"/><path class="cls-78" d="M514.85,325c2.16.18,3.13,1.25,3.06,3.09a2.77,2.77,0,0,1-3,2.92,2.9,2.9,0,0,1-3-3.35A2.76,2.76,0,0,1,514.85,325Z"/><path class="cls-79" d="M269.15,569c1.64.29,3,1,3,3a2.82,2.82,0,0,1-2.79,3.2,2.75,2.75,0,0,1-3.08-2.88C266.21,570.33,267.36,569.45,269.15,569Z"/><path class="cls-70" d="M566.38,271.84a3,3,0,0,1,2.92-3,2.67,2.67,0,0,1,3,2.88c.06,1.89-.94,3.08-2.79,3.12S566.56,273.89,566.38,271.84Z"/><path class="cls-57" d="M477.26,368.44c-.12,1.85-1,3.08-2.91,3.08s-3.06-.83-3-2.87c.05-1.82.88-3.08,2.84-3.1A2.83,2.83,0,0,1,477.26,368.44Z"/><path class="cls-80" d="M282.57,568.57a2.67,2.67,0,0,1,3-2.86,2.77,2.77,0,0,1,3.12,3.21,2.72,2.72,0,0,1-3,2.88C283.54,571.79,282.57,570.64,282.57,568.57Z"/><path class="cls-81" d="M569.26,255.64c0-2,.94-3.13,2.83-3.14a2.68,2.68,0,0,1,2.87,2.63c.14,1.91-1,3-2.88,3A2.5,2.5,0,0,1,569.26,255.64Z"/><path class="cls-66" d="M479.41,354.1c.35-1.59,1-3,3-3a2.72,2.72,0,0,1,2.92,2.54,2.67,2.67,0,0,1-2.63,3.22C480.67,357.09,479.92,355.8,479.41,354.1Z"/><path class="cls-30" d="M244.63,591.61c2,.13,2.78,1.25,2.66,3.12a2.61,2.61,0,0,1-3.11,2.71c-1.94-.11-2.74-1.33-2.69-3.16C241.56,592.28,242.81,591.59,244.63,591.61Z"/><path class="cls-69" d="M296.69,547.5c-.26,1.62-.9,2.92-2.88,3a2.82,2.82,0,0,1-3.22-2.71,2.77,2.77,0,0,1,2.83-3.1C295.36,544.56,296.25,545.72,296.69,547.5Z"/><path class="cls-50" d="M595.2,242.76c-.25,2.2-1.4,3-3.23,3A2.43,2.43,0,0,1,589.4,243a2.67,2.67,0,0,1,2.87-3C594.21,240,595,241.3,595.2,242.76Z"/><path class="cls-82" d="M357.94,483.06c-.16,1.88-1.14,3.15-2.95,3.15a2.88,2.88,0,0,1-2.94-3.12,2.78,2.78,0,0,1,2.75-2.77C356.73,480.17,357.68,481.29,357.94,483.06Z"/><path class="cls-62" d="M314.29,520.82c.43-2.09,1.39-3.18,3.32-3.05a2.55,2.55,0,0,1,2.64,2.76,2.72,2.72,0,0,1-2.89,3.05C315.48,523.6,314.75,522.14,314.29,520.82Z"/><path class="cls-64" d="M427.83,404.12c-.33,1.86-1.31,2.83-3.25,2.64s-2.39-1.43-2.33-3a2.61,2.61,0,0,1,2.7-2.69A2.8,2.8,0,0,1,427.83,404.12Z"/><path class="cls-63" d="M401.27,424.9c2,.05,3.05,1.15,3,3a2.75,2.75,0,0,1-2.76,2.76,2.59,2.59,0,0,1-2.89-3A2.49,2.49,0,0,1,401.27,424.9Z"/><path class="cls-83" d="M443,377.87c.24-1.65,1.11-2.67,2.79-2.72a2.4,2.4,0,0,1,2.76,2.58c.05,1.92-.94,3.11-2.85,3C444.07,380.66,443.25,379.44,443,377.87Z"/><path class="cls-84" d="M255.71,574.57c-.41,1.66-1,2.82-2.8,2.87-1.94.06-2.92-.79-2.91-2.79a2.58,2.58,0,0,1,2.54-2.83C254.45,571.67,255.15,573.19,255.71,574.57Z"/><path class="cls-68" d="M391.45,438.56c-.39,1.76-1.26,2.92-3.22,2.71a2.58,2.58,0,0,1-2.39-3A2.66,2.66,0,0,1,389,435.6C390.64,435.77,391.28,437,391.45,438.56Z"/><path class="cls-85" d="M324.6,494.91a2.71,2.71,0,0,1,3.1,2.46,2.64,2.64,0,0,1-2.37,3.08,2.7,2.7,0,0,1-3.25-2.67C322,496.15,323.1,495.21,324.6,494.91Z"/><path class="cls-86" d="M304.49,526.16a2.63,2.63,0,0,1-2.91,2.45c-2,0-2.85-1.06-2.7-3a2.52,2.52,0,0,1,2.74-2.6A3,3,0,0,1,304.49,526.16Z"/><path class="cls-69" d="M520.62,309.12a3,3,0,0,1,2.77,2.73c.18,1.94-.79,3-2.73,3.09a2.69,2.69,0,0,1-2.95-2.52C517.55,310.61,518.89,309.61,520.62,309.12Z"/><path class="cls-87" d="M435.43,388.48c2.15.09,3.32,1.11,3.24,2.91a2.74,2.74,0,0,1-2.7,2.79,2.64,2.64,0,0,1-2.87-3A2.44,2.44,0,0,1,435.43,388.48Z"/><path class="cls-50" d="M337.33,490.4c.14-1.64,1.24-2.33,2.86-2.3,1.94,0,3,1.14,2.79,3a2.63,2.63,0,0,1-2.84,2.58A2.88,2.88,0,0,1,337.33,490.4Z"/><path class="cls-68" d="M489.8,336.08c1.85.35,3,1.23,2.84,3.19-.1,1.8-1.23,2.41-2.83,2.47A2.54,2.54,0,0,1,487,339.2C486.86,337.36,488.2,336.46,489.8,336.08Z"/><path class="cls-68" d="M547.89,281.13c1.86.4,3.1,1.33,2.94,3.18a2.72,2.72,0,0,1-3.21,2.65c-1.78-.1-2.42-1.2-2.47-2.79C545.07,282.19,546.35,281.49,547.89,281.13Z"/><path class="cls-74" d="M258.27,554.51a2.35,2.35,0,0,1,2.57-2.48,2.43,2.43,0,0,1,2.7,2.57,2.32,2.32,0,0,1-2.52,2.66C259.22,557.34,258.57,556.21,258.27,554.51Z"/><path class="cls-67" d="M493.69,323.91c.31-1.63,1.05-2.89,2.68-2.91a2.58,2.58,0,0,1,2.92,2.88c-.06,1.74-1.14,2.41-2.78,2.45S494.09,325.27,493.69,323.91Z"/><path class="cls-88" d="M358.4,458c.35-1.85,1.36-2.82,3-2.78a2.53,2.53,0,0,1,2.73,2.68c0,1.78-1.21,2.51-2.84,2.52A2.8,2.8,0,0,1,358.4,458Z"/><path class="cls-85" d="M288.34,530.43c-.52,1.67-1.29,2.92-3,2.77a2.75,2.75,0,0,1,.25-5.49C287.23,527.77,287.86,529.19,288.34,530.43Z"/><path class="cls-89" d="M548.4,267.74c.3-1.54,1.06-2.73,2.71-2.8a2.55,2.55,0,0,1,2.8,2.59,2.61,2.61,0,0,1-2.83,3C549.45,270.53,548.68,269.28,548.4,267.74Z"/><path class="cls-90" d="M312,503.85c-.49,1.42-1.15,2.7-2.88,2.53a2.52,2.52,0,0,1-2.47-2.82,2.48,2.48,0,0,1,2.76-2.51C311,501.11,311.83,502.33,312,503.85Z"/><path class="cls-91" d="M593.78,223.6a2.43,2.43,0,0,1,2.36,2.89c-.11,1.82-1.26,2.52-2.89,2.41a2.43,2.43,0,0,1-2.47-2.88A2.47,2.47,0,0,1,593.78,223.6Z"/><path class="cls-60" d="M375.25,445.91a2.43,2.43,0,0,1,2.68,2.57c0,1.84-1,2.95-2.93,2.77a2.42,2.42,0,0,1-2.42-2.82C372.7,446.84,373.46,445.8,375.25,445.91Z"/><path class="cls-92" d="M229.84,598.27a4.47,4.47,0,0,1-4.5-.43c-.21-1.69-.86-3.44,1.34-4.51a2.49,2.49,0,0,1,2.65.32C231.35,594.94,230.46,596.64,229.84,598.27Z"/><path class="cls-93" d="M277.88,548.64a2.72,2.72,0,0,1,2.17,3.22,2.42,2.42,0,0,1-2.9,2.43c-2-.23-2.7-1.58-2.39-3.39A2.63,2.63,0,0,1,277.88,548.64Z"/><path class="cls-58" d="M412.79,413.51c2.32-.11,3.33.86,3.44,2.47.12,1.8-.78,3.15-2.74,3.13a2.88,2.88,0,0,1-.7-5.6Z"/><path class="cls-43" d="M525.09,293.6c2.09-.1,3,.82,3.13,2.47a2.42,2.42,0,0,1-2.51,2.79,2.66,2.66,0,0,1-.62-5.26Z"/><path class="cls-94" d="M574,236.12A2.6,2.6,0,0,1,576.6,239a2.28,2.28,0,0,1-2.57,2.26c-1.56-.06-2.89-.72-2.79-2.56A2.67,2.67,0,0,1,574,236.12Z"/><path class="cls-95" d="M266.39,534.05c.4-1.56,1.27-2.63,2.93-2.5a2.44,2.44,0,0,1,2.3,3,2.29,2.29,0,0,1-2.52,2.27A2.92,2.92,0,0,1,266.39,534.05Z"/><path class="cls-96" d="M458,364.2c-.42,1.57-1.29,2.54-3,2.42a2.42,2.42,0,0,1-2.55-2.78,2.52,2.52,0,0,1,2.94-2.44A2.67,2.67,0,0,1,458,364.2Z"/><path class="cls-97" d="M346.85,463.71c1.59.12,2.74,1,2.8,2.62a2.59,2.59,0,0,1-2.33,2.63,2.65,2.65,0,0,1-3.09-2.36C344,465,345.13,464,346.85,463.71Z"/><path class="cls-86" d="M236.14,573.91c1.4.33,2.55,1,2.48,2.79a2.4,2.4,0,0,1-2.73,2.54c-1.55,0-2.21-1.12-2.3-2.49A2.44,2.44,0,0,1,236.14,573.91Z"/><path class="cls-98" d="M471.05,332c2,.17,2.77,1.21,2.77,2.78a2.22,2.22,0,0,1-2.25,2.46,2.55,2.55,0,0,1-2.87-2.43C468.61,333.15,469.91,332.48,471.05,332Z"/><path class="cls-99" d="M460.94,349.75c.31-2,1.4-2.75,3-2.68,1.78.07,2.38,1.27,2.21,2.91a2.16,2.16,0,0,1-2.53,2.13A2.46,2.46,0,0,1,460.94,349.75Z"/><path class="cls-100" d="M553.69,248.6a2.38,2.38,0,0,1,2.53,2.36c.18,1.76-.82,2.63-2.49,2.66a2.25,2.25,0,0,1-2.53-2.21C551.14,249.78,552.28,249,553.69,248.6Z"/><path class="cls-101" d="M392.51,407.7c2.14,0,2.83,1.28,2.84,2.48a2.34,2.34,0,0,1-2.75,2.51,2.39,2.39,0,0,1-2.41-2.43A2.48,2.48,0,0,1,392.51,407.7Z"/><path class="cls-102" d="M478.2,316.9c1.42.41,2.4,1.15,2.36,2.63a2.22,2.22,0,0,1-2.36,2.38,2.39,2.39,0,0,1-2.51-2.76A2.55,2.55,0,0,1,478.2,316.9Z"/><path class="cls-83" d="M293.1,506.43a2.45,2.45,0,0,1,2.91,2.46,2.36,2.36,0,0,1-2.41,2.4,2.27,2.27,0,0,1-2.71-2.48C290.92,507.6,291.52,506.32,293.1,506.43Z"/><path class="cls-103" d="M241.85,557.41c.18-1.56.7-2.78,2.18-3a2.53,2.53,0,0,1,2.9,2.52,2.26,2.26,0,0,1-2.4,2.42A2.46,2.46,0,0,1,241.85,557.41Z"/><path class="cls-104" d="M435.89,356.88a2.31,2.31,0,0,1,2.46,2.39,2.2,2.2,0,0,1-2.33,2.46,2.29,2.29,0,0,1-2.48-2.34A2.35,2.35,0,0,1,435.89,356.88Z"/><path class="cls-66" d="M332.18,471.55c1.37.24,2.34.82,2.29,2.41s-1,2.7-2.57,2.64a2.2,2.2,0,0,1-2.27-2.42C329.62,472.41,330.54,471.65,332.18,471.55Z"/><path class="cls-105" d="M219.55,575.37a2.17,2.17,0,0,1,2.33,2.41,2.29,2.29,0,0,1-2.38,2.44,2.34,2.34,0,0,1-2.54-2.71A2.18,2.18,0,0,1,219.55,575.37Z"/><path class="cls-50" d="M499.92,308.16c.16-1.67.87-2.93,2.56-2.76a2.66,2.66,0,0,1,2.54,2.83,2.39,2.39,0,0,1-2.38,2.41C501,310.8,500.17,309.64,499.92,308.16Z"/><path class="cls-62" d="M596.52,209.62a2.52,2.52,0,0,1-5,.15c-.16-1.64.91-2.58,2.56-2.62C595.5,207.12,596.38,207.87,596.52,209.62Z"/><path class="cls-61" d="M402.3,398.68c0-1.46.62-2.43,2.21-2.54a2.22,2.22,0,0,1,2.68,2.05c.21,1.74-.7,2.69-2.43,2.8S402.5,400.11,402.3,398.68Z"/><path class="cls-106" d="M316.27,478.57c1.78-.06,2.76.51,2.84,2.13a2.23,2.23,0,0,1-2.13,2.62,2.33,2.33,0,0,1-2.59-2.24A2.06,2.06,0,0,1,316.27,478.57Z"/><path class="cls-107" d="M574.9,219.74a2.19,2.19,0,0,1,2.51,2.26,2.34,2.34,0,0,1-2.24,2.59,2.27,2.27,0,0,1-2.5-2.33A2.18,2.18,0,0,1,574.9,219.74Z"/><path class="cls-57" d="M369.44,431.5a2.2,2.2,0,0,1-2.36,2.34c-1.44,0-2.56-.65-2.6-2.1a2.53,2.53,0,0,1,2.61-2.73C368.54,429,369.21,430.14,369.44,431.5Z"/><path class="cls-71" d="M529.6,277.37a2.46,2.46,0,0,1,2.58,2.78,2.12,2.12,0,0,1-2.43,2.25c-1.37,0-2.52-.62-2.56-2.17A2.58,2.58,0,0,1,529.6,277.37Z"/><path class="cls-83" d="M418.46,386c-.19,1.24-.61,2.38-2.18,2.57a2.36,2.36,0,0,1-2.84-2.44,2.22,2.22,0,0,1,2.36-2.41C417.39,383.66,418.05,384.56,418.46,386Z"/><path class="cls-108" d="M533.13,265.94a2.09,2.09,0,0,1-2.34-2.36c0-1.42.77-2.5,2.31-2.46a2.54,2.54,0,0,1,2.48,2.46C535.68,265.06,534.56,265.77,533.13,265.94Z"/><path class="cls-109" d="M442.4,344.87a2.39,2.39,0,0,1,2.56-2.2,2.33,2.33,0,0,1,2.17,2.58,2.15,2.15,0,0,1-2.52,2.15C443,347.32,442.59,346.21,442.4,344.87Z"/><path class="cls-110" d="M555.21,232.3c1.73,0,2.57.71,2.61,2.22a2.14,2.14,0,0,1-2.2,2.47,2.35,2.35,0,0,1-2.49-2.31A2.13,2.13,0,0,1,555.21,232.3Z"/><path class="cls-111" d="M227.82,556.25a2.13,2.13,0,0,1,2.14,2.53,2.09,2.09,0,0,1-2.1,2.16,2.32,2.32,0,0,1-2.53-2.32C225.28,557.21,226.25,556.32,227.82,556.25Z"/><path class="cls-112" d="M452.74,328.11c1.59.16,2.33,1,2.31,2.19a2.36,2.36,0,0,1-2.35,2.47,2.25,2.25,0,0,1-2.26-2.5C450.48,328.62,451.71,328.32,452.74,328.11Z"/><path class="cls-113" d="M509.17,276.36c.11-1.7.79-2.68,2.28-2.82a1.9,1.9,0,0,1,2.27,1.86c.18,1.42-.31,2.58-1.82,2.83S509.72,277.31,509.17,276.36Z"/><path class="cls-114" d="M336.39,449.69c.18-1.47,1-2.54,2.4-2.57a2.28,2.28,0,0,1,2.33,2.5,2,2,0,0,1-2.07,2.15A2.26,2.26,0,0,1,336.39,449.69Z"/><path class="cls-76" d="M380.39,419a2,2,0,0,1,2.15,2.44c-.08,1.41-.82,2.56-2.28,2.44a2.55,2.55,0,0,1-2.55-2.8C377.84,419.56,379,419.06,380.39,419Z"/><path class="cls-115" d="M507.28,289.73c1.41,0,2.45.55,2.52,2.1a2.32,2.32,0,0,1-2.48,2.7,2.19,2.19,0,0,1-2.28-2.4A2.14,2.14,0,0,1,507.28,289.73Z"/><path class="cls-41" d="M350.75,440.87c.2-1.41,1-2.42,2.43-2.39a2.19,2.19,0,0,1,2.34,2.39,2.11,2.11,0,0,1-2.36,2.33A2.19,2.19,0,0,1,350.75,440.87Z"/><path class="cls-116" d="M593.83,190.35c1.62.35,2.43,1.14,2.31,2.69s-1,1.92-2.23,2a2.13,2.13,0,0,1-2.47-2.27C591.48,191.27,592.72,190.7,593.83,190.35Z"/><path class="cls-117" d="M428.77,373.31a2.11,2.11,0,0,1-2.59,2.08c-1.39-.14-2.48-.95-2.31-2.44a2.51,2.51,0,0,1,2.91-2.46C428.24,370.69,428.76,371.91,428.77,373.31Z"/><path class="cls-118" d="M301.28,484.39c1.4.3,2.37,1.18,2.25,2.59a2.19,2.19,0,0,1-2.61,2.14,2,2,0,0,1-1.94-2.25A2.26,2.26,0,0,1,301.28,484.39Z"/><path class="cls-119" d="M274.94,513.36a2.06,2.06,0,0,1,2.24-2.36,2.17,2.17,0,0,1,2.45,2.22,2.21,2.21,0,0,1-2.29,2.41A2.17,2.17,0,0,1,274.94,513.36Z"/><path class="cls-120" d="M406.64,365.71c1.38.41,2.31,1.19,2.23,2.34a2.22,2.22,0,1,1-4.39-.45C404.7,366.32,405.82,366.06,406.64,365.71Z"/><path class="cls-102" d="M179.11,597.77l-2.65.37c-1.15-1.28-1.78-2.57-.2-4a1.76,1.76,0,0,1,2.13-.31C180.11,594.85,180.1,596.24,179.11,597.77Z"/><path class="cls-121" d="M459.73,312.88c1.42.34,2.31,1.09,2.18,2.6a2,2,0,0,1-2.12,2,2.24,2.24,0,0,1-2.21-2.52C457.62,313.77,458.61,313.17,459.73,312.88Z"/><path class="cls-122" d="M205,578.48a2.11,2.11,0,0,1-2.32,1.74c-1.46-.05-2.41-.78-2.27-2.34a2.13,2.13,0,0,1,2.26-2A2.37,2.37,0,0,1,205,578.48Z"/><path class="cls-123" d="M260.93,514.61a2.19,2.19,0,0,1,2.1,2.54,1.85,1.85,0,0,1-2.22,1.79,1.93,1.93,0,0,1-2.08-2.4C258.84,515.17,259.8,514.8,260.93,514.61Z"/><path class="cls-124" d="M535.44,244.76a2.1,2.1,0,0,1,2.23,2.37,2,2,0,0,1-1.87,2.24,2.23,2.23,0,0,1-2.54-2.15C533.1,245.76,534,244.94,535.44,244.76Z"/><path class="cls-125" d="M484.21,301.42c1.4.34,2.37,1.13,2.28,2.6a2.13,2.13,0,0,1-2.59,2.07,1.94,1.94,0,0,1-1.94-2.2A2.28,2.28,0,0,1,484.21,301.42Z"/><path class="cls-126" d="M254.89,536.92c0,1.5-.72,2.41-2.24,2.35-1.35,0-2.51-.69-2.4-2.27s1.19-2.12,2.6-2.11A1.84,1.84,0,0,1,254.89,536.92Z"/><path class="cls-127" d="M593.24,173.88a2.34,2.34,0,0,1,1.88,2.22,2,2,0,0,1-2.43,2.1,1.84,1.84,0,0,1-1.73-2.29C591.2,174.85,591.72,173.83,593.24,173.88Z"/><path class="cls-128" d="M575.25,203.19a2.18,2.18,0,0,1,2.43,2.22,1.88,1.88,0,0,1-2.08,2c-1.45,0-2.45-.55-2.45-2.12C573.15,204,574.07,203.42,575.25,203.19Z"/><path class="cls-129" d="M285.22,489.69c1.1.28,2.13.6,2.23,2,.1,1.58-.76,2.26-2.21,2.34a2,2,0,0,1-2.26-1.88C282.75,490.56,284,490.1,285.22,489.69Z"/><path class="cls-130" d="M517,259.1c-.2,1.53-.82,2.39-2.18,2.35a2,2,0,0,1-2.1-2.13c0-1.41.89-2,2.13-2.05A2.1,2.1,0,0,1,517,259.1Z"/><path class="cls-131" d="M556.78,215.88a1.91,1.91,0,0,1,1.92,2.23c-.12,1.39-1.06,1.87-2.33,1.82a1.83,1.83,0,0,1-1.9-2.21A1.89,1.89,0,0,1,556.78,215.88Z"/><path class="cls-132" d="M321.86,457.35c0-1.44.7-2.46,2.2-2.41a2.07,2.07,0,0,1,2,2.14,2,2,0,0,1-2.2,2.34C322.58,459.41,322,458.62,321.86,457.35Z"/><path class="cls-133" d="M384.23,390.51a2,2,0,0,1,2,2.19c0,1.5-.87,2.47-2.35,2.28a2,2,0,0,1-1.76-2.41A2,2,0,0,1,384.23,390.51Z"/><path class="cls-100" d="M358.72,412.4c1.26.08,2.14.73,2.15,2,0,1.48-.94,2.22-2.43,2.08a1.85,1.85,0,0,1-1.91-2.13C356.64,413,357.51,412.49,358.72,412.4Z"/><path class="cls-134" d="M238.27,539.13c-.25,1.26-.92,2.06-2.19,2-1.43-.06-2.42-.81-2.2-2.35a2,2,0,0,1,2.38-1.69C237.61,537.16,238.08,538,238.27,539.13Z"/><path class="cls-135" d="M416.81,352.46c1.26.36,2.12.93,2,2.33a2.05,2.05,0,0,1-2.23,2c-1.39,0-1.89-1.09-1.82-2.31A2,2,0,0,1,416.81,352.46Z"/><path class="cls-136" d="M535.18,230.38c.05-1.24.81-1.86,2.1-1.93a1.82,1.82,0,0,1,2.05,1.58,1.92,1.92,0,0,1-1.86,2.29C536.11,232.49,535.4,231.8,535.18,230.38Z"/><path class="cls-137" d="M185.82,575.56a2.12,2.12,0,0,1,2.08,2.14,1.85,1.85,0,0,1-2.07,2.07A1.79,1.79,0,0,1,184,578,2.09,2.09,0,0,1,185.82,575.56Z"/><path class="cls-138" d="M219.35,538.28a2.06,2.06,0,0,1,2,2.1,1.82,1.82,0,0,1-1.6,2,1.8,1.8,0,0,1-2.25-1.76C217.38,539.27,218.12,538.62,219.35,538.28Z"/><path class="cls-139" d="M213,559.27c-.1,1.22-.58,2.15-2,2.08-1.19-.06-2.13-.61-2.12-2a1.9,1.9,0,0,1,2-2.09C212.25,557.22,212.88,558,213,559.27Z"/><path class="cls-140" d="M345,422a1.81,1.81,0,0,1,2,2.11c-.08,1.36-1,1.91-2.24,1.83a1.67,1.67,0,0,1-1.69-1.85A1.81,1.81,0,0,1,345,422Z"/><path class="cls-141" d="M246.23,518.79c.15,1.75-.48,2.66-1.76,2.75s-2-.8-2.06-2.1a1.85,1.85,0,0,1,1.6-2.07A1.77,1.77,0,0,1,246.23,518.79Z"/><path class="cls-142" d="M373.81,404a1.8,1.8,0,0,1-1.94,2.07,1.73,1.73,0,0,1-2-1.95c0-1.26.48-2.09,1.87-2.1A1.9,1.9,0,0,1,373.81,404Z"/><path class="cls-143" d="M332.63,432.54c0,1.31-.57,2.08-1.94,2a1.79,1.79,0,0,1-2-2.07,2,2,0,0,1,3.9,0Z"/><path class="cls-144" d="M489.66,285.87c1.22.34,2,1.14,1.76,2.37a2,2,0,0,1-2.44,1.67c-1.37-.24-2.41-1-1.92-2.57A2.17,2.17,0,0,1,489.66,285.87Z"/><path class="cls-145" d="M468.92,283.73c.35-1.16,1-2,2.29-1.81a1.82,1.82,0,0,1,1.74,1.82,1.94,1.94,0,0,1-2,2.1C469.77,285.84,469.08,284.94,468.92,283.73Z"/><path class="cls-122" d="M426,338.65a2,2,0,1,1-.34,3.9c-1.23-.15-2.07-.83-1.95-2.11S424.73,338.65,426,338.65Z"/><path class="cls-43" d="M395.51,378.68c1.66.11,2.38.76,2.32,2.12a1.82,1.82,0,0,1-2.08,2c-1.36,0-1.95-.79-2-2.1A1.79,1.79,0,0,1,395.51,378.68Z"/><path class="cls-146" d="M575.11,186.47c1.26.31,2,1,1.87,2.34a1.83,1.83,0,0,1-2.29,1.78,1.74,1.74,0,0,1-1.62-2A2.1,2.1,0,0,1,575.11,186.47Z"/><path class="cls-147" d="M558.86,200.08c-.25,2.59-1.2,3.15-2.41,3a1.74,1.74,0,0,1-1.58-2,1.79,1.79,0,0,1,2.27-1.78A3.44,3.44,0,0,1,558.86,200.08Z"/><path class="cls-17" d="M308.59,466.12a1.91,1.91,0,0,1-1.9-2.11,1.81,1.81,0,0,1,2.08-1.92,1.72,1.72,0,0,1,1.92,2A1.88,1.88,0,0,1,308.59,466.12Z"/><path class="cls-148" d="M439.28,311a2,2,0,0,1,2.07-2c1.18,0,1.61.83,1.72,1.81a1.58,1.58,0,0,1-1.43,2C440.28,313,439.64,312.25,439.28,311Z"/><path class="cls-36" d="M465.83,297.53a2,2,0,0,1,1.91,2.29,1.72,1.72,0,0,1-2.22,1.76c-1-.15-1.75-.69-1.67-1.89A2,2,0,0,1,465.83,297.53Z"/><path class="cls-149" d="M589.44,159.54A1.72,1.72,0,0,1,591,157.6c1.24-.16,2.12.35,2.19,1.73a1.76,1.76,0,0,1-1.54,2A1.85,1.85,0,0,1,589.44,159.54Z"/><path class="cls-150" d="M554.36,184.51a1.86,1.86,0,0,1,1.69-1.93c1.18-.1,1.73.68,1.79,1.75a1.63,1.63,0,0,1-1.6,1.94C555,186.37,554.62,185.53,554.36,184.51Z"/><path class="cls-151" d="M234.29,501.56c.26-1,.73-1.83,1.86-1.74a1.64,1.64,0,0,1,1.54,1.95c-.06,1.06-.63,1.78-1.77,1.69S234.4,502.55,234.29,501.56Z"/><path class="cls-45" d="M493.57,269.73a1.79,1.79,0,0,1,1.82,2.11,1.81,1.81,0,0,1-1.95,1.7c-1.44.06-2-.76-1.92-2.09C491.6,270.34,492.23,269.72,493.57,269.73Z"/><path class="cls-114" d="M293.24,468a1.84,1.84,0,0,1,1.84,2.07c-.08,1.36-1,1.86-2.26,1.82s-1.63-.84-1.69-1.86C291.05,468.72,291.64,467.94,293.24,468Z"/><path class="cls-152" d="M517.27,241a1.9,1.9,0,0,1,2,2.1c-.06,1.06-.9,1.6-2,1.66-1.48.09-2-.78-1.87-2.08C515.52,241.56,516,240.87,517.27,241Z"/><path class="cls-153" d="M365.14,386.7a1.65,1.65,0,0,1-1.78,1.78,1.76,1.76,0,0,1-2-1.64c-.1-1.35.79-2,2.08-2S365.11,385.6,365.14,386.7Z"/><path class="cls-154" d="M278.87,474.92c0,1.1-.52,1.77-1.68,1.77s-2.13-.62-2.05-1.95a1.81,1.81,0,0,1,2.22-1.79C278.47,473.06,278.89,473.87,278.87,474.92Z"/><path class="cls-155" d="M385,362.69c.2-1.1.61-1.94,1.84-1.8a1.93,1.93,0,0,1,1.82,2.33,1.81,1.81,0,0,1-2.17,1.42C385.28,364.51,385,363.69,385,362.69Z"/><path class="cls-156" d="M271.12,496c-.16,1.4-1.09,1.8-2.27,1.84s-1.67-.7-1.71-1.73c-.05-1.24.51-2.1,1.88-2.11S270.89,494.88,271.12,496Z"/><path class="cls-157" d="M314,440.62c.11-1.43.6-2.29,2-2.19a1.83,1.83,0,0,1,1.79,1.81c0,1.27-.8,1.94-2.1,2S314.27,441.39,314,440.62Z"/><path class="cls-158" d="M377.47,374.88c-.18,1.5-.86,2.18-2.16,2.12a1.59,1.59,0,0,1-1.62-1.82,1.73,1.73,0,0,1,1.57-1.92C376.62,373.07,377.11,374,377.47,374.88Z"/><path class="cls-159" d="M432.19,326.28c0-1.66.76-2.08,1.84-2.07,1.34,0,2.09.67,1.93,2.06A1.81,1.81,0,0,1,434.1,328,1.76,1.76,0,0,1,432.19,326.28Z"/><path class="cls-160" d="M496.11,253.47c1.53-.13,2.22.41,2.32,1.55s-.2,2-1.39,2.13a1.83,1.83,0,0,1-2.29-1.8A1.92,1.92,0,0,1,496.11,253.47Z"/><path class="cls-161" d="M252.75,497.57a1.69,1.69,0,0,1,1.76,1.81,1.86,1.86,0,1,1-3.7-.24C250.9,498,251.65,497.54,252.75,497.57Z"/><path class="cls-162" d="M192.61,559.35c.06-1,.53-1.94,1.6-2a1.91,1.91,0,0,1,2,2.13,1.7,1.7,0,0,1-1.95,1.59C193.07,561.12,192.55,560.5,192.61,559.35Z"/><path class="cls-163" d="M473.49,267.63c-.12-1.21.49-1.76,1.64-1.79a1.75,1.75,0,0,1,2,1.62,1.71,1.71,0,0,1-1.71,1.89C474.22,269.5,473.75,268.63,473.49,267.63Z"/><path class="cls-164" d="M227.94,519.32c.94.27,1.88.72,1.78,1.85a1.88,1.88,0,0,1-2.31,1.76,1.59,1.59,0,0,1-1.5-2C226.05,519.83,226.88,519.41,227.94,519.32Z"/><path class="cls-165" d="M161,592.69a1.76,1.76,0,0,1,1.83,2,1.7,1.7,0,0,1-1.78,1.72c-1.33,0-2-.76-1.93-2S159.74,592.74,161,592.69Z"/><path class="cls-166" d="M350.14,395.41a1.82,1.82,0,0,1,2.07,1.69,1.65,1.65,0,0,1-1.91,2,1.54,1.54,0,0,1-1.6-1.79A2.06,2.06,0,0,1,350.14,395.41Z"/><path class="cls-167" d="M169.07,574.67a1.81,1.81,0,0,1,2,1.57,1.65,1.65,0,0,1-1.79,2.1,1.56,1.56,0,0,1-1.74-1.68A1.86,1.86,0,0,1,169.07,574.67Z"/><path class="cls-168" d="M298.86,447.41c0-1.26.53-2.06,1.56-2.13a1.81,1.81,0,0,1,2,2,1.56,1.56,0,0,1-1.8,1.63A1.64,1.64,0,0,1,298.86,447.41Z"/><path class="cls-169" d="M260.83,476.94c1,.28,1.79.76,1.67,1.91a1.64,1.64,0,0,1-1.88,1.62,1.68,1.68,0,0,1-1.67-1.85A1.84,1.84,0,0,1,260.83,476.94Z"/><path class="cls-170" d="M445.73,295.62c.07-1.1.58-1.84,1.72-1.9a1.66,1.66,0,0,1,1.9,1.66,1.76,1.76,0,0,1-1.68,1.94C446.55,297.43,446,296.66,445.73,295.62Z"/><path class="cls-171" d="M519.53,207.93c1,.21,1.88.66,1.68,1.8a1.73,1.73,0,0,1-3.43-.13C517.7,208.42,518.54,208,519.53,207.93Z"/><path class="cls-172" d="M516.93,226.13a1.81,1.81,0,0,1,2-1.64,1.49,1.49,0,0,1,1.61,1.85c-.13,1-.67,1.89-1.84,1.72A2,2,0,0,1,516.93,226.13Z"/><path class="cls-173" d="M574,170.07a1.81,1.81,0,0,1,1.77,1.77,1.73,1.73,0,0,1-2.08,1.88,1.66,1.66,0,0,1-1.51-2A1.72,1.72,0,0,1,574,170.07Z"/><path class="cls-174" d="M201.05,540.91c0-1,.36-1.82,1.53-1.86s1.64.65,1.66,1.71a1.69,1.69,0,0,1-1.54,1.94C201.59,542.78,201.16,541.92,201.05,540.91Z"/><path class="cls-175" d="M423.25,305.1c.52,0,1.22.58,1.22,1.71,0,.95-.72,1.37-1.58,1.4-1.11.05-1.87-.52-1.82-1.66C421.11,305.72,421.69,305.12,423.25,305.1Z"/><path class="cls-133" d="M395.51,349.35c0-.49.44-1.19,1.63-1.25a1.46,1.46,0,0,1,1.69,1.28c.17,1-.13,1.93-1.32,2.1S395.67,351.17,395.51,349.35Z"/><path class="cls-176" d="M538,212c1.08,0,1.78.38,1.79,1.55s-.39,1.81-1.55,1.85a1.59,1.59,0,0,1-1.84-1.59A1.54,1.54,0,0,1,538,212Z"/><path class="cls-177" d="M538.23,195.21a1.73,1.73,0,0,1,1.41,2,1.5,1.5,0,0,1-1.95,1.38,1.44,1.44,0,0,1-1.16-1.69A1.62,1.62,0,0,1,538.23,195.21Z"/><path class="cls-178" d="M283.24,453c.19-1.14.86-1.84,1.93-1.72s1.53,1,1.4,2.09a1.38,1.38,0,0,1-1.59,1.35C283.84,454.62,283.23,454.07,283.24,453Z"/><path class="cls-179" d="M408.37,336.14c0,1.15-.55,1.71-1.73,1.59s-1.73-.72-1.65-1.8a1.68,1.68,0,0,1,1.83-1.68C407.92,334.29,408.37,335.09,408.37,336.14Z"/><path class="cls-123" d="M478.62,249.55a1.55,1.55,0,0,1,1.49,2,1.45,1.45,0,0,1-1.75,1.21,1.56,1.56,0,0,1-1.49-2A1.44,1.44,0,0,1,478.62,249.55Z"/><path class="cls-180" d="M184.2,540.28a1.7,1.7,0,0,1,2.08-1.36,1.42,1.42,0,0,1,1.4,1.55,1.65,1.65,0,0,1-2,1.45A1.73,1.73,0,0,1,184.2,540.28Z"/><path class="cls-181" d="M221,503.33a1.54,1.54,0,0,1-1.76,1.21c-.91,0-1.6-.58-1.53-1.44a1.58,1.58,0,0,1,2-1.49A1.56,1.56,0,0,1,221,503.33Z"/><path class="cls-182" d="M499,237.14a1.26,1.26,0,0,1,1.48,1.21c.13,1-.27,1.92-1.42,2a1.48,1.48,0,0,1-1.67-1.72C497.43,237.65,498,237.23,499,237.14Z"/><path class="cls-169" d="M452.56,278.05c.87,0,1.58.31,1.72,1.23.17,1.08-.16,1.92-1.46,1.89a1.39,1.39,0,0,1-1.52-1.44A1.41,1.41,0,0,1,452.56,278.05Z"/><path class="cls-183" d="M337,405.44c1.21.2,1.46,1,1.32,2.08s-.85,1.24-1.71,1.17c-1.27-.1-1.48-1-1.33-2S336.16,405.42,337,405.44Z"/><path class="cls-184" d="M501.94,221.65c.13,1.2-.32,1.81-1.16,2a1.36,1.36,0,0,1-1.79-1,1.45,1.45,0,0,1,1.36-2A1.42,1.42,0,0,1,501.94,221.65Z"/><path class="cls-185" d="M252.47,463.09c-.77-.2-1.39-.62-1.4-1.52,0-1.08.61-1.77,1.66-1.64a1.43,1.43,0,0,1,1.21,1.67A1.53,1.53,0,0,1,252.47,463.09Z"/><path class="cls-186" d="M211.12,520.57c.9.1,1.57.41,1.55,1.37a1.55,1.55,0,0,1-1.72,1.7,1.37,1.37,0,0,1-1.49-1.4A1.5,1.5,0,0,1,211.12,520.57Z"/><path class="cls-187" d="M415.19,320.13c.86,0,1.53.32,1.64,1.24s-.17,1.84-1.4,1.93a1.38,1.38,0,0,1-1.65-1.22A1.5,1.5,0,0,1,415.19,320.13Z"/><path class="cls-188" d="M268.5,456.24c1-.07,1.64.33,1.76,1.22s-.22,1.92-1.45,1.92a1.39,1.39,0,0,1-1.46-1.48A1.45,1.45,0,0,1,268.5,456.24Z"/><path class="cls-189" d="M244.3,480.27c.81.1,1.56.38,1.65,1.29a1.49,1.49,0,0,1-1.6,1.8,1.55,1.55,0,0,1-1.7-1.74C242.7,480.71,243.49,480.42,244.3,480.27Z"/><path class="cls-190" d="M309.24,424.18c1.38-.1,2.12.29,2.13,1.46a1.43,1.43,0,0,1-1.4,1.5,1.52,1.52,0,0,1-1.86-1.52A1.32,1.32,0,0,1,309.24,424.18Z"/><path class="cls-191" d="M427.88,292.72c.53,0-.14-.33-.3-1.23a1.41,1.41,0,0,1,1.24-1.66,1.57,1.57,0,0,1,2,1.47C430.87,292,430.22,292.71,427.88,292.72Z"/><path class="cls-36" d="M597.56,295.42c.2-2.59,1.41-3.92,3.67-3.87,2.07.05,3.14,1.43,3.25,3.43a3,3,0,0,1-3.09,3.49A3.37,3.37,0,0,1,597.56,295.42Z"/><path class="cls-36" d="M355.24,603.27c.2-2.6,1.41-3.92,3.66-3.87,2.07,0,3.15,1.42,3.25,3.43a3,3,0,0,1-3.08,3.48A3.37,3.37,0,0,1,355.24,603.27Z"/><path class="cls-183" d="M324.19,416.19c1.21.2,1.46,1,1.31,2.08s-.84,1.24-1.7,1.17c-1.27-.1-1.48-1-1.33-2S323.31,416.17,324.19,416.19Z"/><path class="cls-167" d="M177.32,557.48a1.81,1.81,0,0,1,2,1.57,1.65,1.65,0,0,1-1.79,2.1,1.56,1.56,0,0,1-1.74-1.68A1.85,1.85,0,0,1,177.32,557.48Z"/><path class="cls-167" d="M194.17,519.46a1.8,1.8,0,0,1,2,1.57,1.65,1.65,0,0,1-1.79,2.1,1.56,1.56,0,0,1-1.74-1.69A1.84,1.84,0,0,1,194.17,519.46Z"/><path class="cls-190" d="M293.14,433.1c1.38-.09,2.12.3,2.12,1.47a1.41,1.41,0,0,1-1.4,1.49,1.51,1.51,0,0,1-1.85-1.51A1.33,1.33,0,0,1,293.14,433.1Z"/><path class="cls-190" d="M276.79,439.68c1.38-.09,2.12.3,2.13,1.47a1.42,1.42,0,0,1-1.41,1.49,1.51,1.51,0,0,1-1.85-1.51A1.33,1.33,0,0,1,276.79,439.68Z"/></svg>